<?xml version="1.0" standalone="no"?>
<!DOCTYPE svg PUBLIC "-//W3C//DTD SVG 20010904//EN"
 "http://www.w3.org/TR/2001/REC-SVG-20010904/DTD/svg10.dtd">
<svg version="1.0" xmlns="http://www.w3.org/2000/svg"
 width="626.000000pt" height="626.000000pt" viewBox="0 0 626.000000 626.000000"
 preserveAspectRatio="xMidYMid meet">

<g transform="translate(0.000000,626.000000) scale(0.100000,-0.100000)"
fill="#34A853" stroke="none">
<path d="M3710 4904 c-19 -3 -141 -13 -270 -24 -129 -11 -280 -25 -335 -30
-55 -5 -169 -15 -253 -22 -179 -14 -150 1 -346 -177 l-137 -123 5 -62 c18
-182 47 -522 66 -756 18 -227 24 -271 43 -308 28 -54 158 -230 175 -237 16 -6
21 -4 199 102 l143 84 72 -20 c40 -12 122 -37 183 -56 96 -30 112 -32 130 -21
11 8 79 67 150 131 l130 117 63 -6 c34 -3 91 -9 127 -12 56 -6 65 -5 71 11 7
16 -6 191 -37 525 -19 208 -48 548 -59 690 -16 197 -20 204 -120 194z m44
-106 c3 -24 10 -101 16 -173 6 -71 15 -175 20 -230 5 -55 14 -154 20 -220 6
-66 19 -220 30 -342 11 -122 20 -236 20 -253 0 -32 0 -32 -42 -27 -24 4 -73 9
-109 13 l-66 6 -141 -126 c-77 -69 -147 -126 -154 -126 -7 0 -86 23 -175 50
-89 28 -167 50 -174 50 -11 0 -123 -62 -266 -148 l-52 -31 -68 97 c-38 53 -73
103 -77 109 -4 7 -16 115 -27 240 -10 126 -26 302 -34 393 -8 91 -17 197 -20
235 -3 39 -8 84 -11 102 l-6 32 173 -6 172 -6 -6 94 c-4 52 -9 122 -13 156 -5
49 -4 63 7 67 8 2 131 13 274 25 319 27 456 39 560 50 150 16 143 17 149 -31z
m-1050 -184 c4 -58 6 -107 4 -108 -8 -7 -238 7 -238 15 0 8 211 199 221 199 4
0 9 -48 13 -106z"/>
<path d="M3447 4363 l-27 -27 -30 23 c-30 22 -60 23 -60 2 0 -5 15 -21 32 -35
l33 -25 -29 -30 c-46 -48 -14 -72 35 -25 l28 26 31 -22 c29 -21 60 -22 60 -1
0 5 -15 21 -32 35 l-33 25 26 28 c46 49 14 74 -34 26z"/>
<path d="M2878 4294 l-26 -27 -37 23 c-28 17 -39 20 -48 11 -9 -10 -5 -19 19
-40 l31 -28 -24 -27 c-27 -32 -29 -44 -7 -53 10 -4 24 4 39 21 27 31 32 32 65
6 14 -11 31 -20 38 -20 22 0 12 38 -15 58 l-28 20 23 24 c24 27 29 58 9 58 -7
0 -24 -12 -39 -26z"/>
<path d="M3130 3963 c-90 -15 -207 -73 -277 -136 -53 -49 -54 -52 -36 -67 10
-8 25 -37 33 -65 30 -113 69 -155 142 -155 43 0 54 4 78 30 35 37 43 87 39
234 l-4 110 40 9 c89 19 230 -12 328 -73 52 -32 77 -38 77 -17 0 20 -27 41
-99 77 -97 48 -224 69 -321 53z m-64 -119 c3 -30 4 -91 2 -134 -6 -98 -24
-130 -73 -130 -45 0 -67 23 -94 94 -31 82 -28 120 10 146 16 12 32 20 34 18 2
-2 9 -44 14 -93 11 -92 18 -109 39 -96 10 6 10 27 2 97 -5 49 -10 97 -10 106
0 15 41 46 62 48 4 0 10 -25 14 -56z"/>
<path d="M1202 4679 c-50 -25 -43 -12 -167 -299 -163 -377 -349 -806 -424
-979 -40 -91 -74 -184 -78 -207 -7 -56 17 -105 66 -132 38 -22 48 -22 424 -22
l385 0 4 -177 c3 -195 10 -218 69 -249 44 -22 130 -18 170 9 54 37 59 54 59
245 l0 172 73 0 c109 0 170 46 170 130 0 80 -55 120 -170 128 l-73 5 0 276 c0
256 -1 278 -20 308 -25 42 -68 63 -125 63 -57 0 -108 -23 -132 -58 -16 -24
-18 -57 -21 -309 l-3 -283 -264 0 -265 0 26 58 c14 31 30 68 36 82 5 14 32 77
60 140 28 63 58 133 68 155 10 22 50 113 89 203 39 89 103 235 142 325 39 89
82 186 95 216 13 29 24 64 24 78 0 48 -44 106 -99 129 -46 19 -69 18 -119 -7z"/>
<path d="M4985 4661 c-51 -23 -54 -27 -103 -141 -22 -52 -86 -201 -142 -330
-56 -129 -122 -282 -147 -340 -25 -58 -55 -127 -68 -155 -106 -235 -215 -506
-215 -534 0 -43 24 -91 58 -116 26 -19 45 -20 425 -23 l397 -3 0 -165 c0 -186
8 -221 62 -254 47 -29 134 -28 179 3 54 37 59 54 59 245 l0 172 70 0 c109 0
170 44 170 121 0 88 -50 129 -166 137 l-74 5 0 276 c0 259 -1 278 -20 309 -49
80 -203 84 -255 6 -19 -27 -20 -51 -23 -311 l-3 -283 -265 0 c-145 0 -264 1
-264 3 0 2 23 54 51 117 28 63 78 178 111 255 33 77 71 163 83 190 12 28 54
122 93 210 208 475 204 465 198 500 -9 44 -39 81 -87 105 -47 25 -73 25 -124
1z"/>
<path d="M2500 3208 c-8 -21 -20 -167 -37 -480 -6 -107 -6 -107 18 -116 13 -5
78 -12 144 -16 114 -6 199 -11 565 -36 663 -43 715 -46 725 -31 9 16 22 177
31 387 l7 162 -129 42 -130 42 -162 -106 -161 -107 -167 81 c-92 44 -170 80
-175 80 -5 0 -77 -27 -161 -61 -84 -34 -158 -63 -165 -66 -8 -3 -34 40 -70
114 -32 65 -62 121 -68 125 -21 16 -55 8 -65 -14z m105 -207 c24 -49 49 -92
55 -96 6 -4 91 25 189 64 l177 72 166 -81 c91 -44 173 -80 182 -80 9 0 63 31
119 68 56 38 127 85 158 104 l56 36 92 -30 92 -29 -6 -57 c-2 -31 -10 -131
-16 -222 -6 -91 -11 -166 -12 -166 -1 -1 -123 6 -272 16 -148 10 -346 23 -440
29 -93 7 -267 18 -385 26 -118 8 -219 15 -224 15 -5 0 -6 54 -2 128 9 170 18
292 22 292 2 0 24 -40 49 -89z"/>
<path d="M3520 2178 c-73 -38 -85 -69 -85 -228 0 -152 11 -184 76 -228 30 -21
44 -23 111 -20 88 4 119 21 152 83 37 71 31 288 -10 351 -41 61 -164 82 -244
42z m154 -83 c25 -23 26 -27 26 -148 0 -117 -1 -125 -24 -146 -18 -17 -33 -22
-66 -19 -63 4 -84 37 -89 139 -2 44 0 96 4 115 14 79 94 110 149 59z"/>
<path d="M3903 2185 c-23 -16 -23 -19 -23 -239 0 -239 2 -246 52 -246 33 0 37
12 40 125 3 79 3 80 30 83 20 2 30 -3 39 -20 7 -13 36 -60 66 -105 41 -64 59
-83 76 -83 29 0 47 18 47 45 0 12 -23 55 -51 95 -36 52 -47 76 -37 79 32 11
78 70 79 102 4 133 -38 170 -201 177 -76 3 -99 0 -117 -13z m184 -75 c35 -13
54 -46 42 -77 -11 -31 -40 -43 -103 -43 l-56 0 0 58 c0 32 3 62 7 65 10 11 76
8 110 -3z"/>
<path d="M2603 2175 c-23 -16 -23 -20 -23 -231 0 -129 4 -223 10 -235 11 -19
45 -25 67 -11 8 5 13 42 15 102 3 94 3 95 29 98 23 3 33 -9 90 -98 75 -117
108 -137 139 -80 8 14 -1 35 -44 101 l-55 83 29 18 c43 26 64 64 64 117 -1 58
-25 106 -67 127 -48 25 -224 31 -254 9z m212 -87 c25 -25 26 -54 4 -81 -18
-24 -27 -27 -85 -27 l-64 0 0 58 c0 32 3 62 8 66 11 12 123 -1 137 -16z"/>
<path d="M3026 2174 c-14 -13 -16 -47 -16 -222 0 -114 3 -217 6 -230 8 -26 48
-39 69 -22 11 9 15 35 15 106 l0 94 30 0 c27 0 36 -10 93 -98 67 -103 85 -119
118 -102 30 17 23 57 -24 124 -23 33 -46 66 -50 73 -4 6 7 19 29 32 96 57 74
221 -34 251 -61 16 -218 13 -236 -6z m219 -89 c14 -13 25 -31 25 -40 0 -9 -11
-27 -25 -40 -20 -21 -34 -25 -85 -25 l-60 0 0 65 0 65 60 0 c51 0 65 -4 85
-25z"/>
<path d="M2227 2174 c-4 -4 -7 -110 -7 -235 0 -215 1 -229 19 -239 11 -5 69
-10 128 -10 121 0 147 9 141 51 -3 23 -6 24 -100 27 l-98 3 0 64 0 64 81 3
c65 2 84 7 93 21 8 12 8 22 0 35 -9 13 -28 18 -91 20 l-81 3 -5 52 c-2 29 -3
55 0 60 2 4 39 7 82 7 87 0 115 13 109 51 -3 24 -4 24 -134 27 -71 1 -133 -1
-137 -4z"/>
<path d="M2015 1413 c-36 -92 -84 -237 -79 -242 7 -7 34 28 34 46 0 9 17 13
61 13 58 0 60 -1 70 -30 12 -34 45 -43 34 -10 -13 42 -81 216 -88 228 -11 17
-24 15 -32 -5z m60 -135 c7 -28 6 -28 -40 -28 l-47 0 7 31 c4 18 14 48 23 68
l15 36 18 -40 c9 -22 21 -52 24 -67z"/>
<path d="M2212 1420 c-12 -5 -27 -22 -33 -37 -16 -41 -7 -169 12 -189 21 -20
86 -29 122 -15 25 10 27 14 27 71 l0 60 -40 0 c-22 0 -40 -4 -40 -10 0 -5 14
-10 30 -10 29 0 30 -2 30 -44 0 -47 -9 -56 -59 -56 -46 0 -61 27 -61 112 0 60
4 78 18 91 21 19 64 22 92 7 13 -7 21 -7 25 0 14 23 -77 38 -123 20z"/>
<path d="M2420 1422 c-13 -5 -13 -242 0 -243 58 -3 130 0 130 6 0 4 -26 8 -58
9 l-57 1 0 45 0 45 53 3 c28 2 52 7 52 12 0 5 -24 10 -52 12 l-53 3 -3 43 -3
42 55 0 c30 0 57 4 60 9 6 9 -103 20 -124 13z"/>
<path d="M2744 1417 c-10 -28 1 -240 13 -244 9 -3 13 23 15 99 l3 103 65 -103
c36 -56 71 -102 77 -102 10 0 13 33 13 131 0 100 -3 130 -12 127 -9 -3 -15
-37 -18 -103 l-5 -98 -63 101 c-62 100 -77 115 -88 89z"/>
<path d="M3033 1420 c-33 -14 -43 -42 -43 -123 0 -99 17 -122 89 -122 39 0 56
5 73 23 20 20 23 33 23 102 0 67 -3 83 -21 100 -24 24 -88 35 -121 20z m97
-30 c16 -16 20 -33 20 -90 0 -57 -4 -74 -20 -90 -34 -34 -92 -23 -110 21 -18
43 -8 148 15 165 27 20 72 17 95 -6z"/>
<path d="M3805 1421 c-40 -17 -50 -40 -50 -122 0 -101 18 -124 96 -124 74 0
89 22 89 130 0 68 -3 85 -19 99 -23 20 -87 30 -116 17z m95 -33 c16 -17 20
-35 20 -88 0 -77 -21 -110 -70 -110 -50 0 -70 33 -70 112 0 55 4 72 20 88 27
27 74 26 100 -2z"/>
<path d="M4000 1327 c0 -132 12 -152 88 -152 82 0 92 16 92 147 0 65 -4 108
-10 108 -6 0 -10 -39 -10 -98 0 -85 -3 -101 -20 -120 -25 -27 -60 -28 -89 -4
-18 15 -21 30 -23 116 -2 69 -7 101 -15 104 -10 3 -13 -22 -13 -101z"/>
<path d="M4257 1423 c-4 -3 -7 -62 -7 -130 0 -95 3 -124 13 -121 8 3 14 37 17
104 l5 99 34 -55 c19 -30 48 -76 64 -102 49 -78 57 -67 57 83 0 100 -3 130
-12 127 -9 -3 -15 -37 -18 -103 l-5 -98 -64 102 c-63 99 -71 108 -84 94z"/>
<path d="M1742 1298 c2 -86 7 -123 16 -126 8 -2 12 11 12 46 l0 50 56 4 c61 5
81 19 90 63 4 22 0 38 -16 58 -20 25 -27 27 -91 27 l-70 0 3 -122z m136 90
c17 -17 15 -58 -5 -80 -11 -12 -30 -18 -60 -18 l-43 0 0 55 0 55 48 0 c26 0
53 -5 60 -12z"/>
<path d="M3215 1410 c3 -5 19 -10 35 -10 l29 0 3 -112 c2 -78 7 -113 16 -116
9 -3 12 24 12 112 l0 116 34 0 c19 0 38 5 41 10 4 6 -27 10 -85 10 -58 0 -89
-4 -85 -10z"/>
<path d="M3570 1295 c0 -77 4 -125 10 -125 6 0 10 27 10 60 l0 60 55 0 c30 0
55 5 55 10 0 6 -25 10 -55 10 l-55 0 0 45 0 45 45 1 c58 2 62 3 71 12 4 4 -25
7 -64 7 l-72 0 0 -125z"/>
<path d="M4510 1301 c0 -71 4 -122 10 -126 18 -11 120 7 143 25 18 15 22 30
25 93 4 70 2 78 -21 101 -23 23 -35 26 -92 26 l-65 0 0 -119z m132 82 c14 -12
18 -31 18 -83 0 -79 -15 -99 -79 -107 l-41 -6 0 107 0 106 42 0 c24 0 49 -7
60 -17z"/>
</g>
</svg>
