<svg width="40" height="40" viewBox="0 0 40 40" fill="none" xmlns="http://www.w3.org/2000/svg">
<g clip-path="url(#clip0_148_5751)">
<path d="M20 40C31.0457 40 40 31.0457 40 20C40 8.9543 31.0457 0 20 0C8.9543 0 0 8.9543 0 20C0 31.0457 8.9543 40 20 40Z" fill="#3D9635"/>
<path d="M5.88127 11.6437C5.81502 12.6774 5.73002 14.5062 6.50627 14.6912C7.45002 14.7887 6.93002 12.8899 7.27002 12.5449C7.33502 12.3774 7.45502 12.3774 7.46377 12.5887V14.2062C7.45062 14.378 7.49701 14.549 7.59512 14.6906C7.69323 14.8322 7.83709 14.9357 8.00252 14.9837C8.25252 14.9649 8.41502 14.9737 8.51127 15.2487C8.55294 16.1762 8.59169 17.1037 8.62752 18.0312C8.62752 18.0312 9.20377 18.2249 9.23127 16.4674C9.1737 15.7715 9.15575 15.0729 9.17752 14.3749C9.17752 14.1799 9.40252 14.1624 9.56252 14.2687C9.81252 14.4637 9.92002 14.7012 10.3025 14.6049C10.8875 14.4187 11.235 14.1049 11.245 13.5974C11.2306 13.107 11.1421 12.6215 10.9825 12.1574C11.0075 12.0687 10.8663 11.8487 10.8963 11.7599C11 11.9462 11.1575 11.9274 11.1925 11.7599C11.1357 11.4179 10.9584 11.1075 10.6925 10.8849C10.485 10.6812 10.1788 10.7249 10.0675 11.1587C10.0558 11.7121 10.2243 12.2543 10.5475 12.7037C10.6472 12.9501 10.6879 13.2163 10.6663 13.4812C10.5886 13.5294 10.4951 13.5452 10.4059 13.5253C10.3166 13.5055 10.2387 13.4515 10.1888 13.3749C10.1888 13.3749 9.71877 12.9774 9.71877 12.8987C9.83254 12.4877 9.81903 12.0519 9.68002 11.6487C9.62816 11.4066 9.52407 11.1788 9.37502 10.9812C9.26002 10.8312 9.10252 10.8312 9.02752 10.9812C8.86215 11.5188 8.87531 12.0955 9.06502 12.6249C9.16877 12.9774 9.33627 13.1987 9.26002 13.1987C9.19502 13.4024 9.06252 13.3487 8.96752 13.1187C8.85331 12.6237 8.79917 12.1167 8.80627 11.6087C8.76252 11.2112 8.71502 10.3587 8.48377 10.1424C8.34252 9.92995 8.13002 10.0362 8.05502 10.2399C8.03702 10.6225 8.04495 11.0059 8.07877 11.3874C8.21712 11.9985 8.3136 12.6183 8.36752 13.2424C8.38752 14.1174 7.92002 13.6174 7.94002 13.1812C8.03986 12.6285 8.03435 12.0619 7.92377 11.5112C7.84752 11.2824 7.75752 11.2287 7.56877 11.2737C7.41877 11.2549 7.04002 11.7237 6.93377 12.5012C6.87817 12.752 6.83644 13.0058 6.80877 13.2612C6.75377 13.6587 6.52002 13.9412 6.35627 13.1987C6.21127 12.6599 6.12627 11.3349 5.88877 11.6437" fill="white"/>
<path d="M8.44983 15.8836C7.61608 16.3524 6.80608 16.7761 5.98608 17.2174C6.1245 16.7752 6.37804 16.3777 6.72071 16.0658C7.06338 15.7539 7.48284 15.5387 7.93608 15.4424C8.43608 15.4599 8.31108 15.6636 8.44983 15.8836Z" fill="white"/>
<path d="M11.5911 10.0361C11.5367 10.0473 11.4838 10.065 11.4336 10.0886C11.306 10.1329 11.2005 10.2247 11.1391 10.3448C11.0776 10.465 11.0649 10.6043 11.1036 10.7336C11.3411 12.3586 11.4923 13.5961 11.7286 15.2124C11.7698 15.4074 11.6248 15.6549 11.4436 15.6374C11.1323 15.3986 11.0548 14.9124 10.5248 14.9386C10.301 14.9839 10.0967 15.0973 9.94004 15.2634C9.78336 15.4295 9.68197 15.6401 9.64982 15.8661C9.57847 16.2158 9.57847 16.5764 9.64982 16.9261C9.74411 17.0627 9.88292 17.1623 10.0425 17.2079C10.2021 17.2535 10.3726 17.2423 10.5248 17.1761C10.7573 17.0699 10.9511 16.8011 11.0336 16.8674C11.0848 16.9736 11.0261 17.8211 9.93607 18.4661C9.26232 18.8011 8.72982 18.8899 8.43607 18.2711C8.26107 17.8836 8.44982 16.4161 8.01357 16.7524C6.71607 20.5149 11.0498 21.0449 11.5361 16.9111C11.5673 16.7961 11.6611 16.6811 11.7323 16.7086C11.7648 16.7261 11.7873 16.7699 11.7948 16.8586C11.6948 20.5949 8.44357 20.8424 7.89232 19.6761C7.7587 19.2684 7.69283 18.8414 7.69732 18.4124C7.69682 18.2637 7.65056 18.1188 7.56482 17.9974C7.43232 17.8924 7.25607 18.1836 7.21607 18.6874C7.1763 18.9856 7.16333 19.2868 7.17732 19.5874C7.34982 22.5561 11.5373 21.2836 12.2211 18.8374C12.3559 18.0659 12.3937 17.2807 12.3336 16.4999H12.3473L12.3573 16.4911C12.7811 16.9911 13.3573 16.5524 13.4886 16.3849C13.5024 16.3599 13.5219 16.3385 13.5455 16.3226C13.5692 16.3066 13.5963 16.2965 13.6246 16.2931C13.6529 16.2897 13.6817 16.2931 13.7084 16.3029C13.7352 16.3128 13.7592 16.3289 13.7786 16.3499C13.8602 16.4153 13.9567 16.4596 14.0596 16.4788C14.1624 16.4981 14.2684 16.4918 14.3682 16.4604C14.468 16.429 14.5586 16.3736 14.6319 16.2989C14.7052 16.2243 14.759 16.1327 14.7886 16.0324C14.8621 15.5671 14.9093 15.098 14.9298 14.6274C14.7655 14.6632 14.6113 14.7354 14.4786 14.8386C14.461 14.8588 14.4493 14.8835 14.4448 14.9099C14.4286 15.0349 14.4111 15.1749 14.3911 15.3074C14.3887 15.3192 14.3858 15.3309 14.3823 15.3424C14.3724 15.3582 14.358 15.3708 14.3411 15.3786C14.321 15.3922 14.2978 15.4002 14.2736 15.4018C14.2495 15.4034 14.2254 15.3985 14.2037 15.3877C14.1821 15.3769 14.1637 15.3605 14.1505 15.3402C14.1373 15.3199 14.1297 15.2965 14.1286 15.2724C14.0298 14.7724 13.6173 14.6886 13.3661 15.4836C13.1936 15.6436 12.8911 15.6699 12.8573 15.4486C12.9011 14.9099 12.7061 14.8386 12.3236 15.0861C12.1986 14.0261 12.0736 13.0199 11.9486 11.9611C12.1111 11.9611 12.2536 12.0936 12.4023 11.8899C12.268 11.2621 12.0396 10.6582 11.7248 10.0986C11.7155 10.086 11.7055 10.0739 11.6948 10.0624C11.6921 10.0622 11.6896 10.0612 11.6874 10.0597C11.6852 10.0582 11.6834 10.0561 11.6823 10.0536H11.6673C11.6598 10.0449 11.6473 10.0449 11.6461 10.0361C11.6261 10.0361 11.6086 10.0274 11.5911 10.0361ZM10.4261 15.8399C10.4769 15.8351 10.5279 15.8484 10.5699 15.8774C10.612 15.9064 10.6425 15.9493 10.6561 15.9986C10.6714 16.0461 10.675 16.0965 10.6668 16.1457C10.6585 16.1948 10.6385 16.2413 10.6086 16.2811C10.5748 16.3436 10.4648 16.3174 10.3823 16.3174C10.3407 16.3213 10.2988 16.3123 10.2624 16.2918C10.226 16.2712 10.1967 16.24 10.1786 16.2024C10.1486 16.1049 10.2311 16.0074 10.2711 15.9286C10.3111 15.8499 10.2786 15.9111 10.2848 15.9024C10.3255 15.8694 10.3743 15.8478 10.4261 15.8399Z" fill="white"/>
<path d="M14.5099 9.94727C14.4075 9.95727 14.3081 9.98743 14.2174 10.036C14.1123 10.1464 14.0463 10.2883 14.0296 10.4398C14.0129 10.5913 14.0464 10.7441 14.1249 10.8748C14.2899 10.9548 14.4549 11.1498 14.3424 11.2498C13.8799 11.8073 12.6662 12.7498 12.6049 12.9198V12.9373H12.6149C12.9142 12.9884 13.2197 12.9914 13.5199 12.946V12.9373C14.0665 12.4149 14.5683 11.8474 15.0199 11.241C14.9587 11.1798 14.8949 11.1348 14.8337 11.0735C14.8191 11.0618 14.8073 11.047 14.7992 11.0301C14.7911 11.0132 14.7869 10.9947 14.7869 10.976C14.7869 10.9573 14.7911 10.9388 14.7992 10.9219C14.8073 10.9051 14.8191 10.8902 14.8337 10.8785C14.9515 10.7721 15.0228 10.6237 15.0324 10.4652C15.042 10.3068 14.9891 10.1509 14.8849 10.031C14.7703 9.96866 14.64 9.94087 14.5099 9.95102M14.4524 10.4373C14.5287 10.4285 14.6174 10.5173 14.6624 10.6223C14.7074 10.7273 14.6862 10.8523 14.6112 10.8785C14.5362 10.9048 14.4324 10.8173 14.3824 10.7023C14.3324 10.5873 14.3599 10.4635 14.4387 10.446C14.4387 10.446 14.4387 10.4373 14.4524 10.4373ZM6.07242 18.5523C5.8642 18.9191 5.73446 19.3252 5.69143 19.7448C5.64839 20.1644 5.693 20.5883 5.82243 20.9898C5.87912 21.0721 5.95986 21.1349 6.05362 21.1696C6.14737 21.2043 6.24955 21.2091 6.34618 21.1835C6.63493 21.0423 6.76493 20.3798 6.69368 20.1423C6.59743 19.9648 6.52118 19.9385 6.42243 20.0885C6.22118 20.5485 6.13493 20.2298 6.11618 19.9635C6.09281 19.5269 6.11122 19.0891 6.17117 18.656C6.22242 18.2948 6.17118 18.3998 6.06993 18.551M25.8424 17.2273C25.3974 16.1398 24.7774 15.071 24.5812 14.6648C24.3849 14.2585 22.8962 11.8298 22.6762 11.5473C22.1912 10.9023 23.4612 11.821 22.5149 10.531C22.1574 10.186 22.1399 10.1685 21.8312 9.88602C21.6862 9.76102 21.3124 9.55102 21.2524 9.90352C21.2183 10.1596 21.2289 10.4198 21.2837 10.6723C21.3778 10.9065 21.504 11.1265 21.6587 11.326C23.2506 13.693 24.6349 16.1931 25.7962 18.7985C26.0012 18.6935 25.9574 17.4123 25.8362 17.2273" fill="white"/>
<path d="M23.8825 20.8485C23.7912 20.9548 24.0962 21.4398 24.495 21.431C25.1562 21.3523 25.745 20.931 26.28 19.8235C26.5028 19.4453 26.6422 19.0238 26.6887 18.5873C26.7555 16.4941 26.6059 14.3997 26.2425 12.3373C26.2193 12.1935 26.2248 12.0465 26.2587 11.9048C26.3012 11.8435 26.4475 11.9048 26.5237 11.7635C26.64 11.631 26.225 10.5535 25.9887 10.1385C25.905 9.95228 25.875 9.82978 25.7387 10.156C25.5697 10.527 25.4901 10.9324 25.5062 11.3398C25.8225 13.796 25.9187 15.9648 26.1312 18.4148C26.1666 18.6672 26.1117 18.9239 25.9762 19.1398C25.4144 19.8576 24.7012 20.4428 23.8875 20.8535M31.4775 24.4385C30.9987 24.7485 30.9987 25.1098 31.3875 25.1185C31.783 25.128 32.1742 25.0345 32.5226 24.8471C32.8711 24.6597 33.1648 24.385 33.375 24.0498C33.5651 23.6149 33.674 23.1489 33.6962 22.6748C33.786 20.416 33.6655 18.1537 33.3362 15.9173C33.2939 15.7078 33.2717 15.4947 33.27 15.281C33.315 15.166 33.5287 15.2985 33.6012 15.156C33.7187 15.031 33.0475 14.0523 32.8075 13.6373C32.7275 13.451 32.6975 13.3273 32.5575 13.6635C32.3996 14.0338 32.3519 14.4418 32.42 14.8385C32.7753 17.3693 32.9973 19.917 33.085 22.471C33.0682 22.6842 33.0236 22.8943 32.9525 23.096C32.7706 23.4063 32.5529 23.6941 32.3037 23.9535C32.0837 24.1298 31.6237 24.306 31.475 24.4385" fill="white"/>
<path d="M33.1911 18.4374C33.1836 17.8124 33.2074 17.2712 33.1836 16.8024C33.1599 16.3337 32.9736 14.5849 32.9149 14.2149C32.8561 13.8449 32.7824 13.2699 32.6924 12.8187C32.64 12.5569 32.6123 12.2907 32.6099 12.0237C32.6449 11.8987 32.7986 12.0324 32.8674 11.8824C32.7887 11.1942 32.5764 10.528 32.2424 9.92119C32.1561 9.73619 31.9924 9.79619 31.7936 10.0987C31.6036 10.2924 31.6686 10.7337 31.7449 11.1587C32.2651 13.9221 32.518 16.7293 32.4999 19.5412C32.4724 19.7624 33.1986 18.8612 33.1911 18.4374ZM29.6799 14.9737C29.3786 14.9649 28.7511 14.3199 28.5686 13.9412C28.5137 13.7571 28.5261 13.5595 28.6036 13.3837C28.7149 13.3049 28.8861 13.2074 29.0124 13.3049C29.0124 13.3049 29.1449 13.5074 29.1199 13.5349C29.2824 13.6224 29.3536 13.5699 29.3699 13.4899C29.3799 13.3649 29.3186 13.2874 29.3186 13.1462C29.3874 12.7487 29.7861 12.6949 29.9436 12.9424C30.0512 13.1563 30.1084 13.3918 30.1111 13.6312C30.1111 13.7462 29.9474 13.6137 29.8611 13.6399C29.7749 13.6662 29.7474 13.7824 29.7361 13.8899C29.7097 14.2515 29.6926 14.6137 29.6849 14.9762M24.1524 19.1349C24.2374 18.2774 24.1249 16.5462 24.1174 16.0437C24.0899 14.8599 23.9136 12.5712 23.8349 12.1912C23.7399 11.4674 24.0961 12.2712 24.0449 11.8474C23.8879 11.1694 23.5855 10.5335 23.1586 9.98369C23.0261 9.77119 23.0336 9.72744 22.8211 10.0362C22.6859 10.5111 22.6955 11.0155 22.8486 11.4849C23.1344 12.8715 23.3207 14.2768 23.4061 15.6899C23.4964 17.1783 23.5077 18.6704 23.4399 20.1599C23.6661 20.1599 24.0274 19.7449 24.1524 19.1349Z" fill="white"/>
<path d="M34.2124 17.7661C33.6887 16.7661 32.8887 15.6011 32.6774 15.2036C32.4662 14.8061 30.6612 11.8386 30.4362 11.5786C29.7762 10.8098 30.7387 11.4536 30.3112 10.8448C30.0812 10.5361 29.8198 10.252 29.5312 9.99734C29.3774 9.89109 29.2812 9.66984 29.2312 10.0323C29.2039 10.3553 29.1959 10.6797 29.2074 11.0036C29.2421 11.2231 29.3325 11.4301 29.4699 11.6048C31.2521 14.0502 32.8351 16.6348 34.2037 19.3336C34.4037 19.2286 34.3349 17.9473 34.2112 17.7711M27.8212 27.2273C27.7282 27.2553 27.645 27.3088 27.581 27.3818C27.5171 27.4549 27.4749 27.5444 27.4594 27.6402C27.4439 27.736 27.4556 27.8343 27.4933 27.9237C27.531 28.0132 27.593 28.0902 27.6724 28.1461C22.7412 28.1461 15.1724 28.0573 13.5562 28.0573C12.6449 28.0573 9.77616 27.9323 9.72241 27.9323C10.0077 28.3674 10.4091 28.7139 10.8813 28.9324C11.3534 29.1509 11.8774 29.2327 12.3937 29.1686C14.5862 29.1686 24.7299 29.1423 27.6137 29.1423C27.5407 29.3389 27.5192 29.5508 27.5511 29.7579C27.583 29.9651 27.6674 30.1607 27.7962 30.3261L27.8074 30.3348C27.809 30.338 27.8115 30.3406 27.8147 30.3421C27.8179 30.3437 27.8214 30.3442 27.8249 30.3436H27.8337C28.0262 30.3973 28.1099 30.2373 28.1774 30.1323C28.9144 30.1736 29.6532 30.1706 30.3899 30.1236C30.4987 30.2998 30.6087 30.4673 30.8124 30.4411C31.1724 30.3523 31.4549 30.3086 31.4674 29.4873C31.4674 29.4873 31.4299 28.0911 30.6124 28.1798C30.4187 28.2061 29.8774 28.2686 29.8774 28.2686C29.2524 28.1886 28.7862 28.1798 28.0812 28.1436C28.1474 28.0548 28.2599 27.6748 28.1199 27.5423C28.0967 27.5228 28.0698 27.5081 28.0408 27.4991C28.0118 27.4901 27.9814 27.487 27.9512 27.4898H27.9374C27.9374 27.4898 27.9262 27.4811 27.9224 27.4723V27.4636C27.8902 27.3861 27.8639 27.3063 27.8437 27.2248H27.8274M28.1624 29.2248C28.8774 29.2598 29.5524 29.2336 30.2749 29.2686C30.3189 29.3282 30.3411 29.4011 30.3376 29.475C30.3342 29.549 30.3055 29.6196 30.2562 29.6748C30.2562 29.6836 30.2462 29.6836 30.2462 29.6836H30.2262C29.9924 29.6748 29.8587 29.6748 29.6249 29.6661C29.6249 29.6486 29.6174 29.6398 29.6174 29.6223C29.5599 29.4361 29.1624 29.4548 29.0649 29.6048V29.6486C29.0625 29.6572 29.0625 29.6663 29.0649 29.6748C28.7583 29.6943 28.4504 29.6826 28.1462 29.6398C28.0574 29.5148 28.0674 29.2861 28.1762 29.2248M15.3462 10.7961C14.8674 12.3323 15.6237 14.0286 16.1462 13.8698C16.5212 14.0373 16.7624 13.2248 16.9199 12.3411C17.0274 12.0911 17.1062 12.0673 17.1612 12.1911C17.1449 13.3748 17.2349 13.6398 17.5049 13.9936C17.5773 14.0713 17.6647 14.1336 17.7618 14.1768C17.8589 14.2199 17.9637 14.243 18.0699 14.2446C18.1762 14.2463 18.2816 14.2264 18.38 14.1863C18.4784 14.1462 18.5676 14.0866 18.6424 14.0111C18.6812 13.9761 19.1112 13.4898 19.1112 13.4898C19.1339 13.4603 19.1629 13.4361 19.1959 13.4189C19.229 13.4017 19.2655 13.3919 19.3027 13.3902C19.34 13.3885 19.3771 13.395 19.4116 13.4092C19.4461 13.4234 19.4771 13.4449 19.5024 13.4723C19.6412 13.6136 19.6274 13.8698 19.9299 14.0373C20.0897 14.0998 20.2647 14.1121 20.4317 14.0729C20.5986 14.0336 20.7497 13.9445 20.8649 13.8173C21.0374 13.4898 21.0749 13.3748 21.1537 13.2511C21.2787 13.0661 21.4862 13.1461 21.4862 13.2073C21.4674 13.3136 21.3499 13.4111 21.4262 13.5961C21.5762 13.7211 21.6099 13.6398 21.6974 13.6136C22.0024 13.4461 22.2324 12.7036 22.2324 12.7036C22.2424 12.4211 22.1074 12.4473 22.0124 12.5098C21.8987 12.5886 21.8874 12.6161 21.7724 12.6948C21.6249 12.7123 21.3349 12.8273 21.1949 12.5798C21.0462 12.2798 21.0462 11.8561 20.9312 11.5561C20.9312 11.5386 20.7399 11.0873 20.9199 11.0561C21.0087 11.0736 21.2012 11.1348 21.2337 10.9498C21.3312 10.7736 21.0299 10.2611 20.8262 10.0136C20.7897 9.96029 20.7414 9.91625 20.6849 9.88499C20.6284 9.85374 20.5654 9.83613 20.5009 9.83358C20.4364 9.83103 20.3722 9.8436 20.3134 9.8703C20.2546 9.897 20.2029 9.93708 20.1624 9.98734C20.044 10.145 19.9815 10.3377 19.9849 10.5348C19.9584 10.6628 19.9589 10.795 19.9862 10.9228C20.0135 11.0506 20.0672 11.1714 20.1437 11.2773C20.4285 11.727 20.56 12.2567 20.5187 12.7873C20.4703 12.8739 20.3995 12.9459 20.3137 12.9956C20.2279 13.0453 20.1303 13.071 20.0312 13.0698C19.9062 13.0348 19.6937 12.9723 19.5812 12.0536C19.6077 11.3301 19.526 10.6067 19.3387 9.90734C19.2424 9.62484 19.1749 9.35109 18.9412 9.83734C18.8393 9.99037 18.774 10.1647 18.7502 10.347C18.7263 10.5292 18.7446 10.7145 18.8037 10.8886C18.9834 11.4134 19.0348 11.9736 18.9537 12.5223C18.874 12.6805 18.7803 12.8311 18.6737 12.9723C18.6061 13.0609 18.5067 13.1196 18.3966 13.1362C18.2865 13.1527 18.1743 13.1258 18.0837 13.0611C17.9825 13.004 17.8969 12.923 17.8344 12.8251C17.7718 12.7273 17.7342 12.6156 17.7249 12.4998C17.7665 11.8957 17.7468 11.2888 17.6662 10.6886C17.5237 10.3523 17.2824 10.4761 17.1824 10.5736C16.7132 11.1646 16.4076 11.8685 16.2962 12.6148C16.1587 13.1086 16.0124 12.9673 15.9112 12.7648C15.6612 12.5086 15.6462 10.4586 15.3462 10.7948" fill="white"/>
<path d="M16.9661 13.9848C16.9661 13.9936 16.9598 13.9936 16.9523 13.9936V14.0023C16.9211 14.0198 16.8798 14.0823 16.7973 14.1523C16.7274 14.2462 16.6775 14.3534 16.6509 14.4674C16.6242 14.5814 16.6213 14.6997 16.6423 14.8148C16.6486 14.8598 16.9048 15.6636 17.1273 16.2373C17.3137 16.8582 17.3766 17.5097 17.3123 18.1548C16.9549 18.9836 16.3559 19.6854 15.5936 20.1686C15.4824 20.2248 15.3595 20.2541 15.2348 20.2541C15.1102 20.2541 14.9873 20.2248 14.8761 20.1686V20.1598C14.8073 20.106 14.7533 20.0355 14.7194 19.955C14.6855 19.8745 14.6727 19.7866 14.6823 19.6998C15.4506 19.2268 16.0542 18.5284 16.4111 17.6998C16.5796 17.2336 16.5958 16.7258 16.4573 16.2498C16.4141 16.0086 16.3133 15.7813 16.1636 15.5873C16.1636 15.5873 16.1636 15.5873 16.1636 15.5786C16.2598 15.5261 16.5086 15.7373 16.5498 15.6048C16.4775 15.2247 16.3049 14.8708 16.0498 14.5798C16.0167 14.5312 15.973 14.4907 15.922 14.4614C15.8711 14.432 15.8141 14.4146 15.7554 14.4104C15.6967 14.4062 15.6379 14.4153 15.5832 14.4371C15.5286 14.4588 15.4796 14.4927 15.4398 14.5361C15.2336 14.6686 15.1898 15.1373 15.2861 15.5523C15.3986 15.8523 15.7023 15.9061 15.9186 16.5236V16.5323C15.9598 16.7471 15.9469 16.9688 15.8811 17.1773C15.5142 17.6878 15.0789 18.1454 14.5873 18.5373L14.5786 18.5461V18.5561H14.5648V18.5461C14.5696 18.4786 14.5696 18.411 14.5648 18.3436C14.5648 18.1673 14.6286 17.7423 14.6236 17.6636V17.6548C14.2548 17.9286 14.1236 18.7586 14.0598 19.0061C13.1201 19.5917 12.2408 20.2692 11.4348 21.0286C11.1123 21.5861 13.6486 20.3748 13.9348 20.2336C13.9348 20.2336 13.9423 20.2336 13.9461 20.2423C13.9997 20.4247 14.0757 20.5998 14.1723 20.7636C14.3204 20.9783 14.5315 21.1418 14.7765 21.2313C15.0214 21.3209 15.2882 21.3322 15.5398 21.2636C16.3726 20.8606 17.0628 20.2136 17.5186 19.4086C17.5936 19.2836 17.7148 19.1873 17.8236 19.2836C18.0857 19.7964 18.4882 20.2242 18.9842 20.517C19.4801 20.8098 20.0492 20.9556 20.6248 20.9373C20.9411 20.5036 20.7923 20.2836 20.6623 20.2036C20.6211 20.1686 19.9786 19.8861 19.8811 19.6036C19.8198 19.3473 19.9686 19.1173 20.2773 18.9398C21.157 18.8485 22.0242 18.662 22.8636 18.3836C22.8937 18.0352 22.99 17.6958 23.1473 17.3836C23.1799 17.3127 23.2303 17.2516 23.2936 17.2061C23.2936 17.2061 23.2936 17.2061 23.2936 17.1973V17.1886C23.2946 17.1828 23.2946 17.1768 23.2936 17.1711L23.1473 17.0736L20.3373 17.0561C20.3093 17.045 20.2828 17.0303 20.2586 17.0123V16.9598C20.2806 16.9299 20.3118 16.908 20.3473 16.8973C21.0223 16.7998 22.2123 16.5798 22.2898 15.2811C22.3104 15.1348 22.3008 14.9858 22.2615 14.8434C22.2222 14.701 22.1541 14.5681 22.0615 14.4531C21.9688 14.338 21.8535 14.2432 21.7227 14.1745C21.5919 14.1058 21.4484 14.0646 21.3011 14.0536C21.0197 14.1139 20.7728 14.281 20.6121 14.5197C20.4515 14.7585 20.3897 15.0502 20.4398 15.3336C20.4161 15.5023 20.4948 15.8461 20.3373 15.8811C19.3023 15.9961 18.1748 16.7211 18.1336 17.2423H18.1198L18.1123 17.2511H18.0986L18.0861 17.2423C18.0332 17.2097 17.9917 17.1616 17.9671 17.1046C17.9425 17.0476 17.936 16.9844 17.9486 16.9236C17.9012 15.9832 17.659 15.0629 17.2373 14.2211C17.0948 14.0536 17.0298 13.9911 16.9873 13.9823H16.9698M21.0786 15.1398C21.157 15.1317 21.2356 15.1536 21.2986 15.2011C21.3481 15.2261 21.3902 15.2638 21.4205 15.3103C21.4508 15.3569 21.4682 15.4106 21.4711 15.4661V15.4998L21.4536 15.5173C21.3986 15.5786 21.2786 15.5698 21.1586 15.4898C21.1124 15.4644 21.0727 15.4286 21.0427 15.3852C21.0128 15.3418 20.9934 15.292 20.9861 15.2398V15.2298C20.9861 15.2123 20.9936 15.2036 20.9986 15.2036L21.0061 15.1861C21.0061 15.1773 21.0061 15.1773 21.0198 15.1686C21.0285 15.1598 21.0388 15.153 21.0502 15.1485C21.0616 15.144 21.0738 15.1419 21.0861 15.1423M18.4723 17.8098H18.4998C18.8872 17.8919 19.2806 17.9421 19.6761 17.9598C20.0023 17.9861 20.1636 18.2686 19.8586 18.3923C19.5536 18.5161 19.2673 18.5961 19.2673 19.0911C19.3086 19.2293 19.3086 19.3766 19.2673 19.5148C19.2673 19.5236 19.2598 19.5323 19.2548 19.5323V19.5498H19.2461L19.2323 19.5586C19.2316 19.561 19.2301 19.5631 19.2281 19.5647C19.2261 19.5663 19.2236 19.5672 19.2211 19.5673C19.1461 19.5761 19.0423 19.4886 18.9623 19.4523C18.7472 19.3043 18.5662 19.1119 18.4317 18.8881C18.2971 18.6643 18.2121 18.4143 18.1823 18.1548C18.1786 18.1129 18.1832 18.0706 18.1959 18.0305C18.2086 17.9904 18.2292 17.9532 18.2564 17.9211C18.2836 17.889 18.3169 17.8626 18.3544 17.8435C18.3919 17.8244 18.4329 17.813 18.4748 17.8098M9.42483 10.8136C9.75108 10.9811 10.3573 10.9111 10.3323 10.3273C10.3298 10.236 10.3252 10.1447 10.3186 10.0536C10.2548 9.87731 10.0686 9.91231 10.0311 10.0986C10.0173 10.1511 10.0511 10.2486 10.0061 10.2836C9.96108 10.3186 9.87483 10.2923 9.88108 10.1336C9.87791 10.0823 9.85964 10.0332 9.82858 9.99231C9.81887 9.98147 9.8065 9.97334 9.79269 9.96874C9.77888 9.96414 9.76411 9.96321 9.74983 9.96606C9.70608 9.97481 9.70608 9.98356 9.68608 10.0273C9.67056 10.0698 9.66211 10.1146 9.66108 10.1598C9.65358 10.2211 9.63108 10.2398 9.59358 10.2486C9.55608 10.2573 9.56483 10.2573 9.52733 10.2311C9.50983 10.2036 9.47983 10.1948 9.47983 10.1511C9.47902 10.1036 9.474 10.0564 9.46483 10.0098C9.44456 9.98352 9.41588 9.96499 9.38358 9.95731C9.20483 9.95731 9.19358 10.1861 9.20483 10.2748C9.18983 10.2923 9.18483 10.6986 9.42483 10.8136Z" fill="white"/>
<path d="M18.9212 15.3361C19.245 15.5048 20.015 15.4073 19.83 14.8361C19.8279 14.7445 19.8212 14.6532 19.8099 14.5623C19.7462 14.3861 19.5675 14.4298 19.5237 14.6073C19.5137 14.6686 19.5487 14.7661 19.5025 14.8011C19.4562 14.8361 19.37 14.8011 19.3775 14.6423C19.3742 14.5937 19.3558 14.5474 19.325 14.5098C19.3155 14.5 19.304 14.4925 19.2912 14.488C19.2784 14.4834 19.2647 14.4819 19.2512 14.4836C19.2087 14.4923 19.2087 14.5011 19.1837 14.5448C19.17 14.5877 19.162 14.6323 19.16 14.6773C19.16 14.7398 19.1337 14.7573 19.095 14.7661C19.0562 14.7748 19.0675 14.7748 19.03 14.7486C18.9925 14.7223 18.9825 14.7136 18.9825 14.6686C18.9841 14.6206 18.9769 14.5727 18.9612 14.5273C18.9428 14.5002 18.9146 14.4813 18.8825 14.4748C18.7075 14.4748 18.6975 14.7036 18.7037 14.7923C18.6937 14.8011 18.6862 15.2073 18.9262 15.3311M24.4587 13.4636C24.7812 13.6311 25.39 13.5523 25.365 12.9636C25.365 12.9198 25.355 12.7436 25.3512 12.6898C25.2825 12.5223 25.1012 12.5573 25.0637 12.7436C25.0487 12.7961 25.0825 12.8936 25.035 12.9198C25.0112 12.9548 24.9099 12.9373 24.9099 12.7698C24.9037 12.7193 24.8857 12.6709 24.8575 12.6286C24.8348 12.6197 24.8103 12.6167 24.7862 12.6198C24.7437 12.6198 24.7437 12.6286 24.7175 12.6723C24.7029 12.7181 24.6945 12.7656 24.6925 12.8136C24.6925 12.8673 24.6687 12.8848 24.6274 12.8936C24.5862 12.9023 24.5937 12.9023 24.565 12.8761C24.5511 12.8676 24.5395 12.856 24.5312 12.842C24.5229 12.828 24.5182 12.8123 24.5175 12.7961C24.5159 12.7454 24.5088 12.6951 24.4962 12.6461C24.4728 12.6288 24.4459 12.6168 24.4175 12.6111C24.2412 12.6111 24.2262 12.8398 24.2387 12.9198C24.2262 12.9373 24.2187 13.3436 24.46 13.4586M27.325 18.1548C27.1312 18.4758 27.0134 18.8369 26.9807 19.2104C26.948 19.5839 27.0012 19.96 27.1362 20.3098C27.257 20.6798 27.5038 20.9957 27.8337 21.2023C27.8823 21.2552 27.9429 21.2958 28.0103 21.3207C28.0777 21.3455 28.1501 21.354 28.2215 21.3453C28.2928 21.3366 28.3611 21.3111 28.4206 21.2708C28.4801 21.2305 28.5292 21.1766 28.5637 21.1136C28.8937 20.7248 28.9024 19.7448 29.0549 19.5498C29.1674 19.1873 29.4387 19.2498 29.5712 19.4086C29.6915 19.5964 29.8536 19.7539 30.0449 19.8686C30.1077 19.943 30.1847 20.0041 30.2713 20.0484C30.358 20.0927 30.4526 20.1193 30.5497 20.1267C30.6467 20.134 30.7443 20.1219 30.8366 20.0911C30.929 20.0603 31.0142 20.0114 31.0875 19.9473C31.3621 19.7732 31.5608 19.5017 31.6437 19.1873C31.7647 17.7006 31.7785 16.2072 31.6849 14.7186C31.6687 14.6123 31.3649 12.8811 31.3649 12.8623C31.3649 12.8436 31.3212 11.9798 31.2899 11.7761C31.2824 11.6886 31.265 11.6611 31.3437 11.6711C31.4262 11.7586 31.4337 11.7673 31.4862 11.7848C31.5687 11.8036 31.6437 11.6436 31.5949 11.4936C31.3449 10.9636 31.0787 10.4248 30.8212 9.90355C30.7624 9.8248 30.6799 9.75355 30.5787 9.9123C30.5175 9.9756 30.4694 10.0504 30.4372 10.1323C30.4051 10.2143 30.3894 10.3018 30.3912 10.3898C30.4149 10.7648 30.4737 11.1586 30.4949 11.5386C30.5987 12.1823 30.7012 12.8361 30.8049 13.4898C30.9012 14.8773 30.9299 16.1486 31.025 17.5361C31.0472 18.0375 30.9318 18.5355 30.6912 18.9761C30.6912 18.9761 30.4649 19.1348 30.3087 18.9673C30.0921 18.7038 29.902 18.4195 29.7412 18.1186C29.5087 17.8811 29.3537 17.9423 29.1887 18.1186C28.7808 18.7581 28.4561 19.4469 28.2224 20.1686C28.1399 20.3098 27.9162 20.4336 27.6687 20.1598C27.3418 19.5475 27.2212 18.8461 27.325 18.1598M24.605 10.0536C24.7632 10.189 24.885 10.3618 24.9595 10.5563C25.0339 10.7508 25.0586 10.9608 25.0312 11.1673C24.9725 11.5648 24.8212 12.0061 24.7087 11.9448C24.5962 11.8836 24.7887 11.5473 24.6775 11.1848C24.6087 10.9461 24.2162 10.5223 24.2575 10.3898C24.2406 10.3418 24.2379 10.29 24.2497 10.2405C24.2614 10.191 24.287 10.1459 24.3236 10.1105C24.3602 10.0751 24.4061 10.0509 24.4559 10.0409C24.5058 10.0308 24.5575 10.0352 24.605 10.0536Z" fill="white"/>
<path d="M28.2599 18.5524C28.2865 17.9684 28.266 17.3831 28.1987 16.8024C28.1812 16.3436 27.7337 12.5524 27.6387 12.1999C27.5287 11.5386 28.0774 12.1124 28.0137 11.7236C27.8262 11.2374 27.3549 10.5224 27.2087 10.0986C27.1149 9.91239 27.1537 9.75364 26.9587 10.0536C26.7876 10.5897 26.7268 11.1547 26.7799 11.7149C27.3404 14.3405 27.6385 17.0153 27.6699 19.6999C27.8937 19.6999 28.1524 19.1261 28.2649 18.5524M31.8524 14.5986C32.1237 14.7574 32.2762 15.5786 32.2474 15.8174C32.1962 16.2499 32.0562 16.7186 31.9549 16.6561C31.8537 16.5936 31.9762 16.0124 31.9237 15.8349C31.8599 15.5786 31.5037 15.1111 31.5399 14.9699C31.4674 14.6774 31.6974 14.5549 31.8524 14.5949M13.5574 17.0499C13.8074 17.1561 13.9574 17.7661 13.9324 17.9424C13.8812 18.2599 13.7474 18.5961 13.6524 18.5674C13.5574 18.5386 13.6749 18.0899 13.6212 17.9574C13.6024 17.6311 13.2462 17.4574 13.2587 17.3211C13.1912 17.0649 13.4012 17.0211 13.5612 17.0561M6.79242 9.85114C7.16742 9.97614 7.18742 10.5924 7.16742 10.7786C7.11617 11.1049 6.98242 11.4586 6.88492 11.4149C6.78742 11.3711 6.88492 10.9286 6.83242 10.7899C6.77867 10.5861 6.45742 10.2424 6.49992 10.1361C6.42742 9.91489 6.64117 9.80864 6.79617 9.85364M14.1662 12.7661C14.0194 12.8816 13.9173 13.0445 13.8774 13.2269C13.8375 13.4093 13.8622 13.6 13.9474 13.7661C13.9967 13.8397 14.0687 13.8952 14.1524 13.924C14.2361 13.9529 14.327 13.9537 14.4112 13.9261C14.6924 13.9699 14.8587 13.3336 14.8587 13.3336C14.8587 13.3336 14.8674 13.1574 14.5374 13.4924C14.3949 13.5286 14.3774 13.4661 14.3412 13.3774C14.3079 13.2121 14.3226 13.0408 14.3837 12.8836C14.4349 12.7236 14.3274 12.6536 14.1662 12.7686M16.3124 9.61239C16.1873 9.71403 16.0842 9.83999 16.0092 9.98266C15.9342 10.1253 15.889 10.2817 15.8762 10.4424C15.8649 10.6549 15.8287 10.6549 15.9549 10.7961C16.0487 10.9461 16.1412 10.9286 16.3237 10.8136C16.3706 10.7807 16.4105 10.7388 16.4409 10.6903C16.4714 10.6418 16.4919 10.5877 16.5012 10.5311C16.5462 10.2811 16.2712 10.6461 16.2337 10.3724C16.1749 10.1161 16.3499 10.0186 16.5187 9.76239C16.5187 9.59489 16.5187 9.47989 16.3124 9.61239ZM18.0462 9.95739C17.9774 10.2741 17.9356 10.5961 17.9212 10.9199C17.8699 11.1586 18.1474 11.2636 18.2687 10.9549C18.3936 10.6182 18.46 10.2627 18.4649 9.90364C18.4099 9.54114 18.1899 9.55989 18.0462 9.95739ZM28.9587 16.2024C28.9987 16.1661 30.4962 14.9649 30.4962 14.9649C30.6499 14.9036 30.6212 15.5899 30.5474 15.5749C30.0933 16.0794 29.5559 16.5022 28.9587 16.8249C28.8862 16.8786 28.8112 16.3574 28.9587 16.2074M30.3274 16.1936C30.5949 16.3436 30.7024 17.2086 30.6699 17.4436C30.6799 17.9036 30.4199 18.2736 30.3124 18.2211C30.2049 18.1686 30.3237 17.6474 30.2724 17.4611C30.1566 17.1798 30.0727 16.8863 30.0224 16.5861C29.9474 16.2936 30.1649 16.1349 30.3262 16.1886M21.4037 19.9386C21.5269 19.7821 21.6702 19.6426 21.8299 19.5236C21.878 19.4995 21.933 19.4923 21.9856 19.5035C22.0383 19.5146 22.0857 19.5433 22.1199 19.5849C22.1462 19.7449 22.0274 19.9036 22.0649 20.1236C22.0949 20.2124 22.1199 20.3186 22.2649 20.2749C22.3595 20.1913 22.4701 20.1278 22.59 20.0882C22.7099 20.0487 22.8366 20.0339 22.9624 20.0449C23.1499 20.0449 23.1512 20.3974 23.0399 20.3974C22.71 20.4882 22.3907 20.6139 22.0874 20.7724C22.0449 20.803 21.992 20.8155 21.9403 20.8073C21.8886 20.7991 21.8422 20.7709 21.8112 20.7286C21.7822 20.6831 21.7646 20.6313 21.76 20.5775C21.7555 20.5237 21.764 20.4696 21.7849 20.4199C21.7974 20.2424 21.7337 20.1461 21.5999 20.1549C21.4999 20.2249 21.4137 20.2599 21.3637 20.1374C21.3462 20.0399 21.3387 19.9874 21.4037 19.9336M31.9074 20.4074C31.9499 20.451 31.9738 20.5096 31.9738 20.5705C31.9738 20.6315 31.9499 20.69 31.9074 20.7336C31.7999 20.8486 31.7287 20.9011 31.6212 21.0161C31.5737 21.1136 31.5424 21.2549 31.6924 21.2986C31.9712 21.3874 32.6212 20.9236 32.6212 20.9011C32.656 20.8695 32.6804 20.8282 32.6913 20.7825C32.7023 20.7367 32.6992 20.6888 32.6824 20.6449C32.6212 20.5661 32.4849 20.6099 32.3937 20.6099C32.3462 20.6099 32.2024 20.5749 32.2687 20.4424C32.3167 20.3635 32.3561 20.2797 32.3862 20.1924C32.4274 20.0774 32.3949 20.0074 32.2312 19.9424C32.0987 19.9205 31.9636 19.9205 31.8312 19.9424C31.7349 19.9686 31.7062 20.0224 31.6837 20.1461C31.6899 20.3399 31.7974 20.3311 31.9099 20.4111" fill="white"/>
</g>
<defs>
<clipPath id="clip0_148_5751">
<rect width="40" height="40" fill="white"/>
</clipPath>
</defs>
</svg>
