<svg width="24" height="24" viewBox="0 0 24 24" fill="none" xmlns="http://www.w3.org/2000/svg">
<path opacity="0.4" fill-rule="evenodd" clip-rule="evenodd" d="M12 2.75C6.89137 2.75 2.75 6.89137 2.75 12C2.75 17.1086 6.89137 21.25 12 21.25C17.1086 21.25 21.25 17.1086 21.25 12C21.25 11.5858 21.5858 11.25 22 11.25C22.4142 11.25 22.75 11.5858 22.75 12C22.75 17.9371 17.9371 22.75 12 22.75C6.06294 22.75 1.25 17.9371 1.25 12C1.25 6.06294 6.06294 1.25 12 1.25C15.0231 1.25 17.7548 2.49849 19.7072 4.50599L20.2885 2.76276C20.4195 2.36981 20.8443 2.15749 21.2372 2.28851C21.6302 2.41953 21.8425 2.8443 21.7115 3.23724L20.7115 6.23627C20.6233 6.50078 20.3956 6.69453 20.1204 6.7393C19.8452 6.78406 19.5679 6.67245 19.4004 6.44953C17.7115 4.20163 15.0254 2.75 12 2.75Z" fill="#979B9E"/>
<path d="M11.1708 9.08559L14.3167 10.6585C15.4223 11.2113 15.4223 12.789 14.3167 13.3418L11.1708 14.9148C10.1735 15.4134 9 14.6882 9 13.5731V10.4272C9 9.31216 10.1735 8.58691 11.1708 9.08559Z" fill="#979B9E"/>
</svg>
