<svg width="40" height="40" viewBox="0 0 40 40" fill="none" xmlns="http://www.w3.org/2000/svg">
<g clip-path="url(#clip0_148_5781)">
<path d="M20 40C31.0457 40 40 31.0457 40 20C40 8.9543 31.0457 0 20 0C8.9543 0 0 8.9543 0 20C0 31.0457 8.9543 40 20 40Z" fill="#F0F0F0"/>
<path d="M4.13436 7.82357C2.56334 9.86756 1.37873 12.2234 0.688965 14.7827H11.0935L4.13436 7.82357ZM39.311 14.7827C38.6212 12.2235 37.4365 9.86764 35.8656 7.82365L28.9066 14.7827H39.311ZM0.688965 25.2175C1.37881 27.7767 2.56342 30.1326 4.13436 32.1765L11.0933 25.2175H0.688965ZM32.1764 4.13443C30.1324 2.56342 27.7766 1.37881 25.2173 0.688965V11.0934L32.1764 4.13443ZM7.82357 35.8655C9.86756 37.4365 12.2234 38.6212 14.7826 39.311V28.9066L7.82357 35.8655ZM14.7826 0.688965C12.2233 1.37881 9.86748 2.56342 7.82357 4.13436L14.7826 11.0933V0.688965ZM25.2174 39.311C27.7766 38.6212 30.1325 37.4365 32.1764 35.8656L25.2174 28.9066V39.311ZM28.9066 25.2175L35.8656 32.1765C37.4365 30.1326 38.6212 27.7767 39.311 25.2175H28.9066Z" fill="#0052B4"/>
<path d="M39.8307 17.3913H22.6087V0.169297C21.7437 0.0565941 20.8723 4.34536e-05 20 0C19.1157 0 18.2452 0.058125 17.3913 0.169297V17.3913H0.169297C0.0565941 18.2563 4.34536e-05 19.1277 0 20C0 20.8843 0.058125 21.7548 0.169297 22.6087H17.3913V39.8307C19.1231 40.0564 20.8769 40.0564 22.6087 39.8307V22.6087H39.8307C39.9434 21.7437 40 20.8723 40 20C40 19.1159 39.9419 18.2452 39.8307 17.3913Z" fill="#D80027"/>
<path d="M25.2175 25.2175L34.1422 34.1422C34.5525 33.7314 34.9447 33.303 35.3178 32.8582L27.6771 25.2175H25.2175V25.2175ZM14.7827 25.2175H14.7825L5.85792 34.1421C6.26869 34.5524 6.69709 34.9447 7.1419 35.3178L14.7827 27.6768V25.2175ZM14.7827 14.7828V14.7826L5.858 5.85784C5.44772 6.26861 5.05547 6.69701 4.68237 7.14183L12.3232 14.7827H14.7827V14.7828ZM25.2175 14.7828L34.1423 5.85792C33.7315 5.44764 33.3031 5.05543 32.8583 4.68237L25.2175 12.3232V14.7828Z" fill="#D80027"/>
</g>
<defs>
<clipPath id="clip0_148_5781">
<rect width="40" height="40" fill="white"/>
</clipPath>
</defs>
</svg>
