<svg width="14" height="12" viewBox="0 0 14 12" fill="none" xmlns="http://www.w3.org/2000/svg">
<path fill-rule="evenodd" clip-rule="evenodd" d="M10.3661 4.76193C10.0829 4.76193 9.8504 4.53983 9.8504 4.26617C9.8504 3.99251 10.0768 3.77041 10.3599 3.77041H10.3661C10.6493 3.77041 10.8791 3.99251 10.8791 4.26617C10.8791 4.53983 10.6493 4.76193 10.3661 4.76193ZM7.00034 9.15369C5.5312 9.15369 4.33632 7.99824 4.33632 6.57839C4.33632 5.15919 5.5312 4.00441 7.00034 4.00441C8.46948 4.00441 9.66436 5.15919 9.66436 6.57839C9.66436 7.99824 8.46948 9.15369 7.00034 9.15369ZM10.8435 2.03592C10.7279 2.00088 10.5597 1.92751 10.4181 1.77746C10.3593 1.71533 10.2799 1.55999 10.2033 1.4106C9.99676 1.00672 9.71429 0.454116 9.14592 0.222762C8.41545 -0.0733711 5.61122 -0.0746932 4.85682 0.22144C4.29597 0.444201 4.01008 0.99945 3.80147 1.40465C3.72281 1.55668 3.64211 1.714 3.58192 1.77746C3.44102 1.92817 3.27277 2.00088 3.16812 2.03327C0.913111 2.63611 0.5 4.05266 0.5 6.624C0.5 10.3415 1.43839 12 7.00034 12C12.5616 12 13.5 10.3415 13.5 6.624C13.5 4.05266 13.0876 2.63611 10.8435 2.03592Z" fill="#63C48C"/>
<path fill-rule="evenodd" clip-rule="evenodd" d="M7.00043 4.99559C6.09692 4.99559 5.36235 5.70552 5.36235 6.57871C5.36235 7.45191 6.09692 8.16183 7.00043 8.16183C7.90394 8.16183 8.63851 7.45191 8.63851 6.57871C8.63851 5.70552 7.90394 4.99559 7.00043 4.99559Z" fill="#63C48C"/>
</svg>
