<svg width="16" height="18" viewBox="0 0 16 18" fill="none" xmlns="http://www.w3.org/2000/svg">
<path fill-rule="evenodd" clip-rule="evenodd" d="M8.00001 8.25C9.10458 8.25 10 7.24264 10 6C10 4.75736 9.10458 3.75 8.00001 3.75C6.89544 3.75 6.00001 4.75736 6.00001 6C6.00001 7.24264 6.89544 8.25 8.00001 8.25ZM8.00001 14.25C10.2091 14.25 12 13.2426 12 12C12 10.7574 10.2091 9.75 8.00001 9.75C5.79087 9.75 4.00001 10.7574 4.00001 12C4.00001 13.2426 5.79087 14.25 8.00001 14.25ZM4.25445 9.76428C2.608 9.87851 1.33334 10.6681 1.33334 11.6251C1.33334 12.4141 2.19967 13.0892 3.42643 13.366C3.1523 12.9484 3.00001 12.4862 3.00001 12.0001C3.00001 11.1425 3.47385 10.3597 4.25445 9.76428ZM13.0001 12.0001C13.0001 12.4862 12.8478 12.9484 12.5736 13.366C13.8004 13.0892 14.6667 12.4141 14.6667 11.6251C14.6667 10.6681 13.3921 9.87851 11.7456 9.76428C12.5262 10.3597 13.0001 11.1425 13.0001 12.0001ZM10.4789 7.90154C10.8077 7.36005 11 6.70529 11 6C11 5.76596 10.9788 5.53748 10.9385 5.31685C11.0633 5.2734 11.1959 5.25 11.3333 5.25C12.0697 5.25 12.6667 5.92157 12.6667 6.75C12.6667 7.57843 12.0697 8.25 11.3333 8.25C11.0082 8.25 10.7102 8.11908 10.4789 7.90154ZM4.66668 5.25C4.80413 5.25 4.93673 5.2734 5.0615 5.31685C5.02119 5.53748 5.00001 5.76596 5.00001 6C5.00001 6.70529 5.19231 7.36005 5.52115 7.90154C5.28976 8.11908 4.99181 8.25 4.66668 8.25C3.9303 8.25 3.33334 7.57843 3.33334 6.75C3.33334 5.92157 3.9303 5.25 4.66668 5.25Z" fill="#055092"/>
</svg>
