<svg width="16" height="16" viewBox="0 0 16 16" fill="none" xmlns="http://www.w3.org/2000/svg">
<path fill-rule="evenodd" clip-rule="evenodd" d="M7.33325 2H8.66659C11.9803 2 14.6666 4.68629 14.6666 8C14.6666 11.3137 11.9803 14 8.66659 14H3.99992C2.52716 14 1.33325 12.8061 1.33325 11.3333V8C1.33325 4.68629 4.01954 2 7.33325 2ZM7.99992 8.66667C8.36811 8.66667 8.66659 8.36819 8.66659 8C8.66659 7.63181 8.36811 7.33333 7.99992 7.33333C7.63173 7.33333 7.33325 7.63181 7.33325 8C7.33325 8.36819 7.63173 8.66667 7.99992 8.66667ZM11.3333 8C11.3333 8.36819 11.0348 8.66667 10.6666 8.66667C10.2984 8.66667 9.99992 8.36819 9.99992 8C9.99992 7.63181 10.2984 7.33333 10.6666 7.33333C11.0348 7.33333 11.3333 7.63181 11.3333 8ZM5.33325 8.66667C5.70144 8.66667 5.99992 8.36819 5.99992 8C5.99992 7.63181 5.70144 7.33333 5.33325 7.33333C4.96506 7.33333 4.66659 7.63181 4.66659 8C4.66659 8.36819 4.96506 8.66667 5.33325 8.66667Z" fill="#0070CD"/>
</svg>
