<svg width="18" height="18" viewBox="0 0 18 18" fill="none" xmlns="http://www.w3.org/2000/svg">
<path d="M13.6797 6.73139L12.9344 6.81597V6.81597L13.6797 6.73139ZM14.015 9.68644L14.7603 9.60186L14.015 9.68644ZM3.98496 9.68644L3.23974 9.60186L3.98496 9.68644ZM4.32035 6.73139L5.06556 6.81597L4.32035 6.73139ZM3.33584 11.1541L2.76473 10.6679H2.76473L3.33584 11.1541ZM14.6642 11.1541L14.0931 11.6402L14.6642 11.1541ZM10.7025 3.28025H9.95246C9.95246 3.60083 10.1562 3.88596 10.4595 3.98981L10.7025 3.28025ZM7.29754 3.28025L7.54049 3.98981C7.84378 3.88596 8.04754 3.60083 8.04754 3.28025H7.29754ZM11.9523 15.2632C12.0977 14.8753 11.9011 14.4431 11.5132 14.2977C11.1253 14.1523 10.6931 14.3489 10.5477 14.7368L11.9523 15.2632ZM7.4523 14.7368C7.30694 14.3489 6.87467 14.1523 6.4868 14.2977C6.09893 14.4431 5.90234 14.8753 6.0477 15.2632L7.4523 14.7368ZM13.3329 12.75H4.66711V14.25H13.3329V12.75ZM12.9344 6.81597L13.2698 9.77102L14.7603 9.60186L14.4249 6.64681L12.9344 6.81597ZM4.73017 9.77102L5.06556 6.81597L3.57513 6.64681L3.23974 9.60186L4.73017 9.77102ZM3.90695 11.6402C4.36285 11.1047 4.6521 10.4589 4.73017 9.77102L3.23974 9.60186C3.19701 9.97839 3.03731 10.3477 2.76473 10.6679L3.90695 11.6402ZM13.2698 9.77102C13.3479 10.4589 13.6372 11.1047 14.0931 11.6402L15.2353 10.6679C14.9627 10.3477 14.803 9.97839 14.7603 9.60186L13.2698 9.77102ZM4.66711 12.75C4.24062 12.75 3.95677 12.541 3.83099 12.3193C3.71261 12.1107 3.71232 11.8689 3.90695 11.6402L2.76473 10.6679C2.13659 11.4059 2.11629 12.337 2.52642 13.0597C2.92914 13.7693 3.72232 14.25 4.66711 14.25V12.75ZM13.3329 14.25C14.2777 14.25 15.0709 13.7693 15.4736 13.0597C15.8837 12.337 15.8634 11.4059 15.2353 10.6679L14.0931 11.6402C14.2877 11.8689 14.2874 12.1107 14.169 12.3193C14.0432 12.541 13.7594 12.75 13.3329 12.75V14.25ZM11.4525 3.28025V3.20246H9.95246V3.28025H11.4525ZM14.4249 6.64681C14.2059 4.7176 12.7775 3.19796 10.9454 2.57068L10.4595 3.98981C11.841 4.46283 12.7917 5.55835 12.9344 6.81597L14.4249 6.64681ZM8.04754 3.28025V3.20246H6.54754V3.28025H8.04754ZM5.06556 6.81597C5.2083 5.55835 6.15896 4.46283 7.54049 3.98981L7.0546 2.57068C5.22253 3.19796 3.79409 4.7176 3.57513 6.64681L5.06556 6.81597ZM9 2.25C9.52603 2.25 9.95246 2.67643 9.95246 3.20246H11.4525C11.4525 1.848 10.3545 0.75 9 0.75V2.25ZM9 0.75C7.64554 0.75 6.54754 1.848 6.54754 3.20246H8.04754C8.04754 2.67643 8.47397 2.25 9 2.25V0.75ZM10.5477 14.7368C10.3342 15.3066 9.73832 15.75 9 15.75V17.25C10.3392 17.25 11.5108 16.4412 11.9523 15.2632L10.5477 14.7368ZM9 15.75C8.26168 15.75 7.66584 15.3066 7.4523 14.7368L6.0477 15.2632C6.48918 16.4412 7.66078 17.25 9 17.25V15.75Z" fill="#2C343B"/>
</svg>
