<svg width="16" height="16" viewBox="0 0 16 16" fill="none" xmlns="http://www.w3.org/2000/svg">
<path fill-rule="evenodd" clip-rule="evenodd" d="M7.49998 1.33325H5.33331C3.12417 1.33325 1.33331 3.12411 1.33331 5.33325V10.6666C1.33331 12.8757 3.12417 14.6666 5.33331 14.6666H7.49998V1.33325ZM8.49998 14.6666H10.6666C12.8758 14.6666 14.6666 12.8757 14.6666 10.6666V5.33325C14.6666 3.12411 12.8758 1.33325 10.6666 1.33325H8.49998V14.6666ZM9.83331 3.99992C9.83331 3.72378 10.0572 3.49992 10.3333 3.49992H12.3333C12.6095 3.49992 12.8333 3.72378 12.8333 3.99992C12.8333 4.27606 12.6095 4.49992 12.3333 4.49992H10.3333C10.0572 4.49992 9.83331 4.27606 9.83331 3.99992ZM3.66665 3.49992C3.3905 3.49992 3.16665 3.72378 3.16665 3.99992C3.16665 4.27606 3.3905 4.49992 3.66665 4.49992H5.66665C5.94279 4.49992 6.16665 4.27606 6.16665 3.99992C6.16665 3.72378 5.94279 3.49992 5.66665 3.49992H3.66665ZM9.83331 6.66659C9.83331 6.39044 10.0572 6.16659 10.3333 6.16659H12.3333C12.6095 6.16659 12.8333 6.39044 12.8333 6.66659C12.8333 6.94273 12.6095 7.16659 12.3333 7.16659H10.3333C10.0572 7.16659 9.83331 6.94273 9.83331 6.66659ZM3.66665 6.16659C3.3905 6.16659 3.16665 6.39044 3.16665 6.66659C3.16665 6.94273 3.3905 7.16659 3.66665 7.16659H5.66665C5.94279 7.16659 6.16665 6.94273 6.16665 6.66659C6.16665 6.39044 5.94279 6.16659 5.66665 6.16659H3.66665ZM12 11.6666C12 12.0348 11.7015 12.3333 11.3333 12.3333C10.9651 12.3333 10.6666 12.0348 10.6666 11.6666C10.6666 11.2984 10.9651 10.9999 11.3333 10.9999C11.7015 10.9999 12 11.2984 12 11.6666ZM4.66665 12.3333C5.03484 12.3333 5.33331 12.0348 5.33331 11.6666C5.33331 11.2984 5.03484 10.9999 4.66665 10.9999C4.29846 10.9999 3.99998 11.2984 3.99998 11.6666C3.99998 12.0348 4.29846 12.3333 4.66665 12.3333Z" fill="#F5BB5C"/>
</svg>
