<svg width="16" height="16" viewBox="0 0 16 16" fill="none" xmlns="http://www.w3.org/2000/svg">
<path fill-rule="evenodd" clip-rule="evenodd" d="M3.33333 1.33325H12.6667C13.403 1.33325 14 1.93021 14 2.66659V12.7695C14 13.693 13.0839 14.3368 12.215 14.024L11.1739 13.6492C10.8485 13.5321 10.4904 13.5459 10.1751 13.6878L8.54715 14.4204C8.19919 14.577 7.80081 14.577 7.45285 14.4204L5.82492 13.6878C5.50959 13.5459 5.15148 13.5321 4.82614 13.6492L3.78496 14.024C2.91608 14.3368 2 13.693 2 12.7695V2.66659C2 1.93021 2.59695 1.33325 3.33333 1.33325ZM11.3333 5.16659C11.6095 5.16659 11.8333 4.94273 11.8333 4.66659C11.8333 4.39044 11.6095 4.16659 11.3333 4.16659L4.66667 4.16659C4.39052 4.16659 4.16667 4.39044 4.16667 4.66659C4.16667 4.94273 4.39052 5.16659 4.66667 5.16659L11.3333 5.16659ZM11.8333 7.33325C11.8333 7.60939 11.6095 7.83325 11.3333 7.83325L4.66667 7.83325C4.39052 7.83325 4.16667 7.60939 4.16667 7.33325C4.16667 7.05711 4.39052 6.83325 4.66667 6.83325L11.3333 6.83325C11.6095 6.83325 11.8333 7.05711 11.8333 7.33325ZM8 10.4999C8.27614 10.4999 8.5 10.2761 8.5 9.99992C8.5 9.72378 8.27614 9.49992 8 9.49992L4.66667 9.49992C4.39052 9.49992 4.16667 9.72378 4.16667 9.99992C4.16667 10.2761 4.39052 10.4999 4.66667 10.4999L8 10.4999Z" fill="#99B7D2"/>
</svg>
