<svg width="24" height="24" viewBox="0 0 24 24" fill="none" xmlns="http://www.w3.org/2000/svg">
<g opacity="0.4">
<path d="M2 10.1198L2 18.2476C2 20.4568 3.79086 22.2476 6 22.2476H18C20.2091 22.2476 22 20.4568 22 18.2476V10.1199L14.4029 12.5843C14.4029 12.5843 13.5013 15.0227 12 15.0227C10.4987 15.0227 9.39067 12.5843 9.39067 12.5843L2 10.1198Z" fill="#459AFE"/>
</g>
<path fill-rule="evenodd" clip-rule="evenodd" d="M18 6.24762H6C3.79086 6.24762 2 8.03848 2 10.2476V10.5951C2 10.5951 4.91389 12.5361 9.49817 13.1047V13.5618C9.49817 14.6663 10.3936 15.5618 11.4982 15.5618H12.5016C13.6062 15.5618 14.5016 14.6663 14.5016 13.5618V13.1048C19.086 12.5361 22 10.5951 22 10.5951V10.2476C22 8.03848 20.2091 6.24762 18 6.24762ZM11.0751 12.342C10.9647 12.342 10.8751 12.4315 10.8751 12.542V13.5308C10.8751 13.9726 11.2333 14.3308 11.6751 14.3308H12.3248C12.7666 14.3308 13.1248 13.9726 13.1248 13.5308V12.542C13.1248 12.4315 13.0352 12.342 12.9248 12.342H11.0751Z" fill="#459AFE"/>
<path fill-rule="evenodd" clip-rule="evenodd" d="M10.9999 2.99762C9.75724 2.99762 8.74988 4.00498 8.74988 5.24762V6.24762C8.74988 6.66183 8.41409 6.99762 7.99988 6.99762C7.58566 6.99762 7.24988 6.66183 7.24988 6.24762V5.24762C7.24988 3.17655 8.92881 1.49762 10.9999 1.49762H12.9999C15.0709 1.49762 16.7499 3.17655 16.7499 5.24762V6.24762C16.7499 6.66183 16.4141 6.99762 15.9999 6.99762C15.5857 6.99762 15.2499 6.66183 15.2499 6.24762V5.24762C15.2499 4.00498 14.2425 2.99762 12.9999 2.99762H10.9999Z" fill="#459AFE"/>
</svg>
