<svg width="16" height="16" viewBox="0 0 16 16" fill="none" xmlns="http://www.w3.org/2000/svg">
<path d="M8 15C11.866 15 15 11.866 15 8C15 4.13401 11.866 1 8 1C4.13401 1 1 4.13401 1 8C1 11.866 4.13401 15 8 15Z" fill="#378FE9"/>
<path fill-rule="evenodd" clip-rule="evenodd" d="M11.93 7.25H11.38C11.33 7.25 11.23 7.06 10.98 6.79C10.61 6.39 10.2 5.88 9.91002 5.6C9.18946 4.97644 8.6012 4.21476 8.18002 3.36C7.94002 2.85 7.92002 2.62 7.43002 2.62C7.23747 2.64719 7.06202 2.74533 6.93807 2.89518C6.81413 3.04502 6.75063 3.23576 6.76002 3.43C6.76002 3.57 6.83002 4.06 6.86002 4.23C7.0729 5.01232 7.41057 5.7552 7.86002 6.43H4.12002C3.99819 6.42913 3.87752 6.45357 3.76563 6.50177C3.65374 6.54997 3.55308 6.62087 3.47002 6.71C3.38655 6.79705 3.3228 6.90105 3.28311 7.01494C3.24343 7.12882 3.22873 7.24992 3.24002 7.37C3.25543 7.60429 3.36081 7.82356 3.53413 7.98197C3.70744 8.14038 3.93528 8.22566 4.17002 8.22H4.33002C4.12294 8.22763 3.92644 8.31338 3.78002 8.46C3.64238 8.60579 3.56704 8.79952 3.57002 9C3.57175 9.2015 3.64853 9.39512 3.78537 9.54305C3.9222 9.69098 4.10926 9.78259 4.31002 9.8C4.18782 9.89349 4.09517 10.0202 4.04318 10.165C3.99118 10.3099 3.98206 10.4666 4.01688 10.6165C4.05171 10.7663 4.12902 10.903 4.23954 11.01C4.35006 11.1171 4.48911 11.19 4.64002 11.22C4.54145 11.3853 4.50929 11.5819 4.55002 11.77C4.60275 11.9538 4.71459 12.1152 4.86824 12.2291C5.02189 12.3429 5.20879 12.403 5.40002 12.4H7.69002C7.98999 12.3986 8.28873 12.3617 8.58002 12.29L10 11.89H11.9C12.92 11.85 13.19 7.25 11.93 7.25Z" fill="#D0E8FF"/>
<path d="M7.4299 6.43004H4.10991C3.98351 6.42886 3.85835 6.45492 3.74293 6.50645C3.62752 6.55797 3.52455 6.63376 3.44105 6.72865C3.35755 6.82354 3.29547 6.9353 3.25903 7.05633C3.2226 7.17736 3.21266 7.30482 3.22991 7.43004C3.2501 7.66165 3.35723 7.87704 3.52977 8.03287C3.7023 8.18871 3.92744 8.27345 4.15991 8.27004H4.31991C4.11283 8.27767 3.91633 8.36342 3.76991 8.51004C3.69932 8.58466 3.64438 8.67264 3.60831 8.76882C3.57225 8.86499 3.55579 8.96741 3.55991 9.07004C3.56358 9.27197 3.64077 9.46563 3.77699 9.61474C3.91321 9.76385 4.09913 9.85817 4.29991 9.88004C4.20428 9.95506 4.12676 10.0506 4.07309 10.1597C4.01943 10.2688 3.991 10.3885 3.98991 10.51C3.98852 10.6981 4.05263 10.8808 4.17123 11.0268C4.28983 11.1727 4.45553 11.2729 4.63991 11.31C4.54069 11.4788 4.50857 11.6787 4.54991 11.87C4.60297 12.0529 4.71521 12.213 4.86904 12.3252C5.02286 12.4374 5.20958 12.4954 5.39991 12.49H7.68991C7.98987 12.4886 8.28862 12.4517 8.57991 12.38L9.99991 11.91H11.8999C12.8999 11.91 13.1699 7.27004 11.8999 7.27004C11.7167 7.28013 11.5331 7.28013 11.3499 7.27004C11.3499 7.27004 11.1999 7.08004 10.9499 6.81004C10.5799 6.41004 10.1699 5.90004 9.87991 5.62004C9.1681 4.99162 8.58996 4.22645 8.17991 3.37004C8.09864 3.1823 7.99088 3.00719 7.85991 2.85004C7.69335 2.70998 7.47846 2.64093 7.2615 2.65776C7.04453 2.6746 6.84286 2.77596 6.69991 2.94004C6.59627 3.05212 6.51181 3.1805 6.44991 3.32004C6.41079 3.41708 6.38066 3.5175 6.35991 3.62004C6.33308 3.90197 6.35678 4.18643 6.42991 4.46004C6.48958 4.7489 6.5801 5.03051 6.69991 5.30004C6.88937 5.65255 7.11026 5.98725 7.35991 6.30004C7.39076 6.31905 7.41516 6.34693 7.4299 6.38004" stroke="#004182" stroke-linecap="round" stroke-linejoin="round"/>
</svg>
