<svg width="16" height="16" viewBox="0 0 16 16" fill="none" xmlns="http://www.w3.org/2000/svg">
<g clip-path="url(#clip0_4_1385)">
<path d="M8 1C9.85652 1 11.637 1.7375 12.9497 3.05025C14.2625 4.36301 15 6.14348 15 8C15 9.85652 14.2625 11.637 12.9497 12.9497C11.637 14.2625 9.85652 15 8 15C6.14348 15 4.36301 14.2625 3.05025 12.9497C1.7375 11.637 1 9.85652 1 8C1 6.14348 1.7375 4.36301 3.05025 3.05025C4.36301 1.7375 6.14348 1 8 1Z" fill="#D8D8D8"/>
<path d="M8 15C11.866 15 15 11.866 15 8C15 4.13401 11.866 1 8 1C4.13401 1 1 4.13401 1 8C1 11.866 4.13401 15 8 15Z" fill="#6DAE4F"/>
<path d="M8.00007 1C9.38454 1 10.7379 1.41055 11.8891 2.17972C13.0402 2.94888 13.9374 4.04214 14.4672 5.32122C14.997 6.6003 15.1357 8.00777 14.8656 9.36563C14.5955 10.7235 13.9288 11.9708 12.9498 12.9497C11.9708 13.9287 10.7236 14.5954 9.3657 14.8655C8.00783 15.1356 6.60037 14.997 5.32129 14.4672C4.0422 13.9373 2.94895 13.0401 2.17978 11.889C1.41061 10.7379 1.00007 9.38447 1.00007 8C1.00007 6.14349 1.73757 4.36301 3.05032 3.05025C4.36308 1.7375 6.14355 1 8.00007 1ZM8.00007 2.47359e-06C6.14931 0.00145782 4.3563 0.644568 2.92653 1.81976C1.49676 2.99496 0.518686 4.62953 0.158943 6.445C-0.2008 8.26046 0.0800456 10.1445 0.953631 11.7761C1.82722 13.4077 3.2395 14.686 4.94985 15.3931C6.66021 16.1002 8.56283 16.1924 10.3336 15.654C12.1043 15.1156 13.6336 13.98 14.6608 12.4405C15.6881 10.901 16.1499 9.05295 15.9674 7.21121C15.7849 5.36946 14.9695 3.64796 13.6601 2.34C12.9166 1.59733 12.034 1.00842 11.0629 0.606911C10.0917 0.205406 9.05095 -0.000823887 8.00007 2.47359e-06Z" fill="white"/>
<path d="M12.1301 9.21995C12.1098 8.4344 11.9888 7.65471 11.7701 6.89995C11.1607 6.40073 10.7006 5.74338 10.4401 4.99995C10.2801 4.46995 10.1701 4.27995 9.70012 4.26995C9.50902 4.2926 9.33427 4.38881 9.21292 4.53816C9.09157 4.68751 9.03318 4.87826 9.05012 5.06995C9.05012 5.30995 9.05012 5.55995 9.11012 5.78995C9.24716 6.44562 9.44123 7.08806 9.69012 7.70995L5.19012 4.32995C5.11505 4.25683 5.0255 4.20025 4.92724 4.16386C4.82897 4.12747 4.72417 4.11208 4.61959 4.11867C4.51501 4.12527 4.41297 4.15371 4.32005 4.20215C4.22713 4.2506 4.1454 4.31798 4.08012 4.39995C4.03186 4.48325 4.00056 4.57528 3.98802 4.67074C3.97548 4.76619 3.98194 4.86318 4.00703 4.95613C4.03213 5.04907 4.07536 5.13614 4.13424 5.21231C4.19312 5.28848 4.26649 5.35225 4.35012 5.39995L6.60012 7.09995L7.19012 7.65995L3.62012 4.99995C3.52354 4.90427 3.40153 4.83834 3.26858 4.80998C3.13563 4.78162 2.99733 4.79202 2.87012 4.83995C2.74189 4.88501 2.62982 4.96695 2.54799 5.07547C2.46615 5.18399 2.41819 5.31427 2.41012 5.44995C2.4004 5.58427 2.42909 5.71858 2.49283 5.83722C2.55658 5.95585 2.65275 6.05391 2.77012 6.11995L5.00012 7.76995L6.35012 8.76995L3.45012 6.57995C3.37366 6.50906 3.28394 6.45401 3.18611 6.41797C3.08828 6.38193 2.98428 6.36561 2.88012 6.36995C2.67027 6.38854 2.47623 6.48915 2.34012 6.64995C2.03012 7.04995 2.28012 7.45995 2.60012 7.70995L4.85012 9.39995L6.00012 10.2499L3.73012 8.54995C3.6608 8.47448 3.57657 8.41423 3.48275 8.37302C3.38894 8.3318 3.28759 8.31052 3.18512 8.31052C3.08265 8.31052 2.9813 8.3318 2.88748 8.37302C2.79367 8.41423 2.70943 8.47448 2.64012 8.54995C2.58025 8.63599 2.53883 8.73349 2.51846 8.83631C2.49809 8.93913 2.49921 9.04506 2.52175 9.14743C2.54429 9.2498 2.58776 9.3464 2.64943 9.43116C2.71111 9.51592 2.78965 9.587 2.88012 9.63995L6.98012 12.6399C7.58012 13.0899 9.05012 13.4799 9.70012 12.9099" stroke="#057642" stroke-width="1.5" stroke-linecap="round" stroke-linejoin="round"/>
<path fill-rule="evenodd" clip-rule="evenodd" d="M12.61 9.89996L12.19 9.52996C12.1393 8.79337 11.967 8.07026 11.68 7.38996C11.0935 6.70009 10.6789 5.88104 10.47 4.99996C10.31 4.46996 10.2 4.27996 9.73002 4.26996C9.53893 4.29262 9.36418 4.38882 9.24283 4.53818C9.12148 4.68753 9.06308 4.87827 9.08003 5.06996C9.08003 5.30996 9.08003 5.55996 9.14003 5.78996C9.2563 6.42137 9.44071 7.03831 9.69002 7.62996L9.50003 7.52996L5.19003 4.21996C5.11496 4.14684 5.02541 4.09027 4.92714 4.05388C4.82888 4.01749 4.72408 4.00209 4.61949 4.00869C4.51491 4.01528 4.41288 4.04372 4.31996 4.09217C4.22704 4.14061 4.14531 4.20799 4.08003 4.28996C4.02262 4.37566 3.98403 4.47255 3.96679 4.57424C3.94955 4.67594 3.95407 4.78013 3.98003 4.87996C4.00379 4.9805 4.04921 5.07465 4.11311 5.15583C4.17702 5.237 4.25787 5.30326 4.35003 5.34996L6.55003 6.99996L7.19003 7.50996L3.62003 4.83996C3.54528 4.76662 3.45583 4.70998 3.35757 4.67378C3.25931 4.63758 3.15448 4.62264 3.05003 4.62996C2.94647 4.63626 2.84525 4.66343 2.75246 4.70983C2.65966 4.75623 2.5772 4.8209 2.51003 4.89996C2.45483 4.98665 2.41754 5.08352 2.40037 5.18485C2.38319 5.28618 2.38648 5.38992 2.41003 5.48996C2.42925 5.59606 2.47143 5.69669 2.53361 5.78478C2.5958 5.87288 2.67649 5.94632 2.77003 5.99996L5.00003 7.65996L6.35003 8.65996L3.45003 6.47996C3.37578 6.40534 3.28665 6.34719 3.18844 6.30929C3.09024 6.27138 2.98515 6.25458 2.88003 6.25996C2.77559 6.26693 2.67371 6.2954 2.58079 6.34358C2.48787 6.39176 2.4059 6.45862 2.34003 6.53996C2.28148 6.62484 2.24158 6.72116 2.22295 6.82258C2.20432 6.924 2.20739 7.02821 2.23195 7.12836C2.25652 7.2285 2.30202 7.32231 2.36546 7.40359C2.4289 7.48488 2.50885 7.55181 2.60003 7.59996L4.85003 9.28996L6.00003 10.14L3.73003 8.44996C3.66262 8.3727 3.5797 8.31051 3.48666 8.26744C3.39361 8.22437 3.29254 8.20137 3.19003 8.19996C3.08623 8.2024 2.984 8.2258 2.88948 8.26877C2.79496 8.31173 2.71011 8.37336 2.64003 8.44996C2.57881 8.53468 2.53624 8.63141 2.51512 8.73378C2.49399 8.83615 2.4948 8.94183 2.51747 9.04386C2.54014 9.1459 2.58418 9.24197 2.64667 9.32575C2.70916 9.40954 2.78869 9.47914 2.88003 9.52996L7.00003 12.64C7.29304 12.8634 7.62898 13.024 7.98687 13.1118C8.34475 13.1995 8.71689 13.2125 9.08003 13.15C9.28171 13.3065 9.52974 13.3914 9.78503 13.3914C10.0403 13.3914 10.2883 13.3065 10.49 13.15C11.09 12.69 10.9 12.64 11.34 12.02C11.8422 11.3636 12.2683 10.6524 12.61 9.89996Z" fill="#DCF0CB"/>
<path d="M12.1301 9.21995C12.1098 8.4344 11.9888 7.65471 11.7701 6.89995C11.1607 6.40073 10.7006 5.74338 10.4401 4.99995C10.2801 4.46995 10.1701 4.27995 9.70012 4.26995C9.50902 4.2926 9.33427 4.38881 9.21292 4.53816C9.09157 4.68751 9.03318 4.87826 9.05012 5.06995C9.05012 5.30995 9.05012 5.55995 9.11012 5.78995C9.24716 6.44562 9.44123 7.08806 9.69012 7.70995L5.19012 4.32995C5.11505 4.25683 5.0255 4.20025 4.92724 4.16386C4.82897 4.12747 4.72417 4.11208 4.61959 4.11867C4.51501 4.12527 4.41297 4.15371 4.32005 4.20215C4.22713 4.2506 4.1454 4.31798 4.08012 4.39995C4.03186 4.48325 4.00056 4.57528 3.98802 4.67074C3.97548 4.76619 3.98194 4.86318 4.00703 4.95613C4.03213 5.04907 4.07536 5.13614 4.13424 5.21231C4.19312 5.28848 4.26649 5.35225 4.35012 5.39995L6.60012 7.09995L7.19012 7.65995L3.62012 4.99995C3.52354 4.90427 3.40153 4.83834 3.26858 4.80998C3.13563 4.78162 2.99733 4.79202 2.87012 4.83995C2.74189 4.88501 2.62982 4.96695 2.54799 5.07547C2.46615 5.18399 2.41819 5.31427 2.41012 5.44995C2.4004 5.58427 2.42909 5.71858 2.49283 5.83722C2.55658 5.95585 2.65275 6.05391 2.77012 6.11995L5.00012 7.76995L6.35012 8.76995L3.45012 6.57995C3.37366 6.50906 3.28394 6.45401 3.18611 6.41797C3.08828 6.38193 2.98428 6.36561 2.88012 6.36995C2.67027 6.38854 2.47623 6.48915 2.34012 6.64995C2.03012 7.04995 2.28012 7.45995 2.60012 7.70995L4.85012 9.39995L6.00012 10.2499L3.73012 8.54995C3.6608 8.47448 3.57657 8.41423 3.48275 8.37302C3.38894 8.3318 3.28759 8.31052 3.18512 8.31052C3.08265 8.31052 2.9813 8.3318 2.88748 8.37302C2.79367 8.41423 2.70943 8.47448 2.64012 8.54995C2.58025 8.63599 2.53883 8.73349 2.51846 8.83631C2.49809 8.93913 2.49921 9.04506 2.52175 9.14743C2.54429 9.2498 2.58776 9.3464 2.64943 9.43116C2.71111 9.51592 2.78965 9.587 2.88012 9.63995L6.98012 12.6399C7.79769 13.1308 8.75057 13.348 9.70012 13.2599" stroke="#057642" stroke-width="0.5" stroke-linecap="round" stroke-linejoin="round"/>
<path d="M14.7701 11.39C14.5685 11.1731 14.4121 10.9181 14.3101 10.64C14.2964 10.4208 14.2629 10.2033 14.2101 9.99004C14.1788 9.6063 14.0553 9.23579 13.8501 8.91004C13.2687 8.22059 12.8546 7.40604 12.6401 6.53004C12.4801 6.00004 12.3701 5.81004 11.9001 5.80004C11.7056 5.81737 11.5259 5.91082 11.4001 6.06004C11.3407 6.13573 11.2969 6.2224 11.2712 6.31507C11.2454 6.40775 11.2383 6.50459 11.2501 6.60004C11.2502 6.84129 11.2702 7.08211 11.3101 7.32004C11.4901 8.24004 11.6801 9.00004 11.7001 9.05004L7.41007 5.84004C7.33545 5.76593 7.24627 5.70811 7.14815 5.67024C7.05004 5.63237 6.94513 5.61528 6.84007 5.62004C6.73427 5.62567 6.63101 5.65458 6.53767 5.70471C6.44433 5.75484 6.3632 5.82495 6.30007 5.91004C6.2514 5.99275 6.21952 6.08425 6.20624 6.1793C6.19297 6.27434 6.19857 6.37107 6.22272 6.46395C6.24687 6.55684 6.28909 6.64404 6.34698 6.72059C6.40487 6.79713 6.47728 6.86151 6.56007 6.91004L8.81007 8.61004L9.49007 9.17004L5.89007 6.46004C5.81545 6.38593 5.72627 6.32811 5.62815 6.29024C5.53004 6.25237 5.42513 6.23528 5.32007 6.24004C5.16171 6.24168 5.00844 6.29622 4.88464 6.39498C4.76084 6.49374 4.67361 6.63105 4.63683 6.78509C4.60004 6.93913 4.61582 7.10104 4.68163 7.24508C4.74745 7.38913 4.85954 7.50703 5.00007 7.58004L7.25007 9.28004L8.60007 10.28L5.71007 8.09004C5.63599 8.01622 5.54692 7.95917 5.44888 7.92277C5.35084 7.88636 5.24612 7.87145 5.14182 7.87904C5.03751 7.88662 4.93605 7.91653 4.84431 7.96674C4.75257 8.01695 4.67269 8.08628 4.61007 8.17004C4.30007 8.57004 4.54007 8.98004 4.87007 9.23004L7.12007 10.91L8.24007 11.76L6.00007 10.06C5.86585 9.93051 5.6866 9.85812 5.50007 9.85812C5.31354 9.85812 5.13429 9.93051 5.00007 10.06C4.93544 10.1404 4.88938 10.2341 4.86518 10.3344C4.84098 10.4346 4.83923 10.539 4.86007 10.64C4.87965 10.7408 4.91999 10.8365 4.97852 10.9208C5.03705 11.0052 5.1125 11.0764 5.20007 11.13L9.20007 14.13C9.53375 14.3806 9.92025 14.5516 10.3301 14.63L10.9101 14.72C11.2156 14.7618 11.5106 14.8601 11.7801 15.01C11.9731 15.0849 12.1871 15.0849 12.3801 15.01C13.082 14.7595 13.6966 14.3115 14.1501 13.72C14.5683 13.1332 14.8111 12.4396 14.8501 11.72C14.8798 11.5816 14.8798 11.4385 14.8501 11.3L14.7701 11.39Z" stroke="#057642" stroke-width="1.5" stroke-linecap="round" stroke-linejoin="round"/>
<path fill-rule="evenodd" clip-rule="evenodd" d="M14.81 11.34L14.36 11C14.3115 10.2631 14.1391 9.53963 13.85 8.86003C13.2686 8.17057 12.8545 7.35603 12.64 6.48003C12.48 5.95003 12.37 5.76003 11.9 5.75003C11.7056 5.76736 11.5259 5.86081 11.4 6.01003C11.3407 6.08572 11.2969 6.17239 11.2711 6.26506C11.2454 6.35773 11.2382 6.45458 11.25 6.55003C11.2501 6.79127 11.2702 7.0321 11.31 7.27003C11.49 8.20003 11.68 8.96003 11.7 9.00003L7.41002 5.79003C7.33496 5.71691 7.24541 5.66033 7.14714 5.62394C7.04888 5.58756 6.94407 5.57216 6.83949 5.57876C6.73491 5.58535 6.63288 5.61379 6.53996 5.66224C6.44704 5.71068 6.36531 5.77806 6.30002 5.86003C5.99002 6.27003 6.24002 6.67003 6.56002 6.92003L8.81003 8.61003L9.49002 9.17003L5.89002 6.41003C5.81496 6.33691 5.72541 6.28033 5.62714 6.24394C5.52888 6.20756 5.42407 6.19216 5.31949 6.19876C5.21491 6.20535 5.11288 6.23379 5.01996 6.28224C4.92704 6.33068 4.84531 6.39806 4.78002 6.48003C4.47002 6.88003 4.72002 7.29003 5.04002 7.54003L7.29002 9.23003L8.64003 10.23L5.71002 8.00003C5.63606 7.92561 5.54672 7.86825 5.44826 7.83197C5.3498 7.7957 5.2446 7.78138 5.14002 7.79003C5.03646 7.79455 4.93519 7.82201 4.84354 7.87043C4.75188 7.91885 4.67212 7.98703 4.61002 8.07003C4.54863 8.15388 4.50611 8.25004 4.48539 8.35188C4.46468 8.45373 4.46626 8.55885 4.49002 8.66003C4.51672 8.7607 4.56437 8.8546 4.62985 8.93559C4.69534 9.01658 4.77718 9.08284 4.87002 9.13003L7.12002 10.82L8.24002 11.67L6.00002 10C5.93485 9.93351 5.85706 9.88066 5.7712 9.84459C5.68534 9.80851 5.59315 9.78993 5.50002 9.78993C5.4069 9.78993 5.31471 9.80851 5.22885 9.84459C5.14299 9.88066 5.0652 9.93351 5.00002 10C4.92964 10.0814 4.87867 10.1777 4.85095 10.2816C4.82323 10.3856 4.8195 10.4944 4.84002 10.6C4.85791 10.7066 4.89956 10.8078 4.96188 10.8961C5.0242 10.9844 5.10559 11.0575 5.20002 11.11L9.20002 14.11C9.80701 14.4705 10.4946 14.6733 11.2 14.7C11.4572 14.8545 11.7245 14.9915 12 15.11C12.8019 14.9578 13.5165 14.5076 14 13.85C14.5211 13.0905 14.8191 12.2002 14.86 11.28L14.81 11.34Z" fill="#DDF6D1"/>
<path d="M14.7701 11.39C14.5685 11.1731 14.4121 10.9181 14.3101 10.64C14.2964 10.4208 14.2629 10.2033 14.2101 9.99004C14.1788 9.6063 14.0553 9.23579 13.8501 8.91004C13.2687 8.22059 12.8546 7.40604 12.6401 6.53004C12.4801 6.00004 12.3701 5.81004 11.9001 5.80004C11.7056 5.81737 11.5259 5.91082 11.4001 6.06004C11.3407 6.13573 11.2969 6.2224 11.2712 6.31507C11.2454 6.40775 11.2383 6.50459 11.2501 6.60004C11.2502 6.84129 11.2702 7.08211 11.3101 7.32004C11.4901 8.24004 11.6801 9.00004 11.7001 9.05004L7.41007 5.84004C7.33545 5.76593 7.24627 5.70811 7.14815 5.67024C7.05004 5.63237 6.94513 5.61528 6.84007 5.62004C6.73427 5.62567 6.63101 5.65458 6.53767 5.70471C6.44433 5.75484 6.3632 5.82495 6.30007 5.91004C6.2514 5.99275 6.21952 6.08425 6.20624 6.1793C6.19297 6.27434 6.19857 6.37107 6.22272 6.46395C6.24687 6.55684 6.28909 6.64404 6.34698 6.72059C6.40487 6.79713 6.47728 6.86151 6.56007 6.91004L8.81007 8.61004L9.49007 9.17004L5.89007 6.46004C5.81545 6.38593 5.72627 6.32811 5.62815 6.29024C5.53004 6.25237 5.42513 6.23528 5.32007 6.24004C5.16171 6.24168 5.00844 6.29622 4.88464 6.39498C4.76084 6.49374 4.67361 6.63105 4.63683 6.78509C4.60004 6.93913 4.61582 7.10104 4.68163 7.24508C4.74745 7.38913 4.85954 7.50703 5.00007 7.58004L7.25007 9.28004L8.60007 10.28L5.71007 8.09004C5.63599 8.01622 5.54692 7.95917 5.44888 7.92277C5.35084 7.88636 5.24612 7.87145 5.14182 7.87904C5.03751 7.88662 4.93605 7.91653 4.84431 7.96674C4.75257 8.01695 4.67269 8.08628 4.61007 8.17004C4.30007 8.57004 4.54007 8.98004 4.87007 9.23004L7.12007 10.91L8.24007 11.76L6.00007 10.06C5.86585 9.93051 5.6866 9.85812 5.50007 9.85812C5.31354 9.85812 5.13429 9.93051 5.00007 10.06C4.93544 10.1404 4.88938 10.2341 4.86518 10.3344C4.84098 10.4346 4.83923 10.539 4.86007 10.64C4.87965 10.7408 4.91999 10.8365 4.97852 10.9208C5.03705 11.0052 5.1125 11.0764 5.20007 11.13L9.20007 14.13C9.53375 14.3806 9.92025 14.5516 10.3301 14.63L10.9101 14.72C11.2156 14.7618 11.5106 14.8601 11.7801 15.01C11.9731 15.0849 12.1871 15.0849 12.3801 15.01C13.082 14.7595 13.6966 14.3115 14.1501 13.72C14.5683 13.1332 14.8111 12.4396 14.8501 11.72C14.8798 11.5816 14.8798 11.4385 14.8501 11.3L14.7701 11.39Z" stroke="#057642" stroke-width="0.5" stroke-linecap="round" stroke-linejoin="round"/>
<path d="M8.8301 2.81995L8.1001 3.73995" stroke="#057642" stroke-linecap="round" stroke-linejoin="round"/>
<path d="M5.49011 1.62L5.56011 2.82" stroke="#057642" stroke-linecap="round" stroke-linejoin="round"/>
<path d="M7.54001 1.63L6.89001 3.19" stroke="#057642" stroke-linecap="round" stroke-linejoin="round"/>
</g>
<defs>
<clipPath id="clip0_4_1385">
<rect width="16" height="16" fill="white"/>
</clipPath>
</defs>
</svg>
