<svg width="16" height="16" viewBox="0 0 16 16" fill="none" xmlns="http://www.w3.org/2000/svg">
<g clip-path="url(#clip0_4_1376)">
<path d="M8 15C11.866 15 15 11.866 15 8C15 4.13401 11.866 1 8 1C4.13401 1 1 4.13401 1 8C1 11.866 4.13401 15 8 15Z" fill="#F5BB5C"/>
<path fill-rule="evenodd" clip-rule="evenodd" d="M8.81993 13.4H7.21993C7.07671 13.4 6.93936 13.3431 6.83809 13.2419C6.73682 13.1406 6.67993 13.0032 6.67993 12.86V11.53H9.35993V12.86C9.35993 13.0032 9.30304 13.1406 9.20177 13.2419C9.1005 13.3431 8.96315 13.4 8.81993 13.4Z" fill="#FFE1B2"/>
<path fill-rule="evenodd" clip-rule="evenodd" d="M6.69006 11.79V11.53C6.69227 11.1902 6.6382 10.8523 6.53006 10.53C6.38982 10.2471 6.2115 9.98464 6.00006 9.75005C5.63062 9.44821 5.3324 9.06852 5.12669 8.63808C4.92098 8.20765 4.81286 7.7371 4.81006 7.26005C4.81006 6.4087 5.14825 5.59223 5.75025 4.99024C6.35224 4.38824 7.16871 4.05005 8.02006 4.05005C8.8714 4.05005 9.68788 4.38824 10.2899 4.99024C10.8919 5.59223 11.2301 6.4087 11.2301 7.26005C11.2202 7.74705 11.1051 8.22616 10.8928 8.66456C10.6805 9.10297 10.376 9.49031 10.0001 9.80005C10.0701 9.75005 9.92006 9.86005 9.82006 10C9.71973 10.144 9.64216 10.3025 9.59006 10.47C9.49005 10.7939 9.43948 11.1311 9.44006 11.47V11.73" fill="#FCF0DE"/>
<path d="M7.46006 4.78003C6.99435 4.86066 6.56676 5.08848 6.24006 5.43003C5.89889 5.76139 5.66245 6.18558 5.56006 6.65003" stroke="white" stroke-width="2" stroke-linecap="round" stroke-linejoin="round"/>
<path d="M8.81993 13.4H7.21993C7.07671 13.4 6.93936 13.3431 6.83809 13.2419C6.73682 13.1406 6.67993 13.0032 6.67993 12.86V11.53H9.35993V12.86C9.35993 13.0032 9.30304 13.1406 9.20177 13.2419C9.1005 13.3431 8.96315 13.4 8.81993 13.4V13.4Z" stroke="#5D3B01" stroke-linecap="round" stroke-linejoin="round"/>
<path d="M8.0001 1.5V2.76M6.6801 11.79V11.53C6.68068 11.191 6.63011 10.8539 6.5301 10.53C6.46496 10.3624 6.3775 10.2043 6.2701 10.06C6.16321 9.9033 6.0391 9.75907 5.9001 9.63C5.76669 9.50994 5.64298 9.37953 5.5301 9.24C5.06635 8.67648 4.81194 7.96981 4.8101 7.24V7.24C4.8101 6.38865 5.14829 5.57218 5.75029 4.97019C6.35228 4.3682 7.16875 4.03 8.0201 4.03C8.87144 4.03 9.68792 4.3682 10.2899 4.97019C10.8919 5.57218 11.2301 6.38865 11.2301 7.24C11.2182 7.96972 10.9611 8.67421 10.5001 9.24C10.3306 9.44947 10.1396 9.64052 9.9301 9.81L9.7301 10.02C9.63286 10.1643 9.55865 10.3229 9.5101 10.49C9.41009 10.8139 9.35952 11.151 9.3601 11.49V11.75L6.6801 11.79ZM4.6001 2.64L5.2101 3.43L4.6001 2.64ZM11.4201 2.63L10.8101 3.43L11.4201 2.63Z" stroke="#5D3B01" stroke-linecap="round" stroke-linejoin="round"/>
</g>
<defs>
<clipPath id="clip0_4_1376">
<rect width="16" height="16" fill="white"/>
</clipPath>
</defs>
</svg>
