<svg width="18" height="18" viewBox="0 0 18 18" fill="none" xmlns="http://www.w3.org/2000/svg">
<path fill-rule="evenodd" clip-rule="evenodd" d="M4.5 13.3125C4.53753 13.3125 4.5742 13.3088 4.60968 13.3018C5.13815 13.2739 5.65784 13.0441 6.04154 12.6125L7.17042 11.3425C7.37681 11.1103 7.3559 10.7547 7.12371 10.5483C6.89152 10.3419 6.53598 10.3629 6.32959 10.5951L5.2007 11.865C5.15805 11.913 5.1117 11.9555 5.0625 11.9925V3.75C5.0625 3.43934 4.81066 3.1875 4.5 3.1875C4.18934 3.1875 3.9375 3.43934 3.9375 3.75V11.9925C3.8883 11.9555 3.84196 11.913 3.79931 11.865L2.67042 10.5951C2.46403 10.3629 2.10849 10.3419 1.8763 10.5483C1.64411 10.7547 1.6232 11.1103 1.82959 11.3425L2.95847 12.6125C3.34217 13.0441 3.86185 13.2739 4.39032 13.3018C4.42579 13.3088 4.46247 13.3125 4.5 13.3125ZM8.4375 3.75C8.4375 3.43934 8.68934 3.1875 9 3.1875H11.25C11.5607 3.1875 11.8125 3.43934 11.8125 3.75C11.8125 4.06066 11.5607 4.3125 11.25 4.3125H9C8.68934 4.3125 8.4375 4.06066 8.4375 3.75ZM9 8.8125C8.68934 8.8125 8.4375 8.56066 8.4375 8.25C8.4375 7.93934 8.68934 7.6875 9 7.6875H13.5C13.8107 7.6875 14.0625 7.93934 14.0625 8.25C14.0625 8.56066 13.8107 8.8125 13.5 8.8125H9ZM9 13.3125C8.68934 13.3125 8.4375 13.0607 8.4375 12.75C8.4375 12.4393 8.68934 12.1875 9 12.1875H15.75C16.0607 12.1875 16.3125 12.4393 16.3125 12.75C16.3125 13.0607 16.0607 13.3125 15.75 13.3125H9Z" fill="#28303F"/>
</svg>
