<svg width="68" height="13" viewBox="0 0 68 13" fill="none" xmlns="http://www.w3.org/2000/svg">
<path d="M7.04257 1.3674L8.10014 3.49672C8.24265 3.7912 8.62518 4.07058 8.9477 4.13099L10.8603 4.44812C12.0829 4.65199 12.3679 5.54299 11.4904 6.43398L9.99777 7.93659C9.75026 8.18577 9.60775 8.67657 9.69025 9.03146L10.1178 10.8889C10.4553 12.3538 9.67525 12.9277 8.39266 12.1575L6.60004 11.0853C6.27752 10.889 5.73748 10.889 5.41496 11.0853L3.62234 12.1575C2.33975 12.9201 1.5597 12.3538 1.89722 10.8889L2.32475 9.03146C2.39225 8.66902 2.24974 8.17822 2.00223 7.92904L0.509625 6.42643C-0.367935 5.54299 -0.0829153 4.65199 1.13967 4.44057L3.0523 4.12344C3.37482 4.07058 3.75735 3.78365 3.89986 3.48917L4.95743 1.35985C5.53497 0.212128 6.46503 0.212128 7.04257 1.3674Z" fill="#F4A951"/>
<path d="M21.0426 1.3674L22.1001 3.49672C22.2427 3.7912 22.6252 4.07058 22.9477 4.13099L24.8603 4.44812C26.0829 4.65199 26.3679 5.54299 25.4904 6.43398L23.9978 7.93659C23.7503 8.18577 23.6077 8.67657 23.6903 9.03146L24.1178 10.8889C24.4553 12.3538 23.6753 12.9277 22.3927 12.1575L20.6 11.0853C20.2775 10.889 19.7375 10.889 19.415 11.0853L17.6223 12.1575C16.3398 12.9201 15.5597 12.3538 15.8972 10.8889L16.3247 9.03146C16.3923 8.66902 16.2497 8.17822 16.0022 7.92904L14.5096 6.42643C13.6321 5.54299 13.9171 4.65199 15.1397 4.44057L17.0523 4.12344C17.3748 4.07058 17.7573 3.78365 17.8999 3.48917L18.9574 1.35985C19.535 0.212128 20.465 0.212128 21.0426 1.3674Z" fill="#F4A951"/>
<path d="M35.0426 1.3674L36.1001 3.49672C36.2427 3.7912 36.6252 4.07058 36.9477 4.13099L38.8603 4.44812C40.0829 4.65199 40.3679 5.54299 39.4904 6.43398L37.9978 7.93659C37.7503 8.18577 37.6077 8.67657 37.6903 9.03146L38.1178 10.8889C38.4553 12.3538 37.6753 12.9277 36.3927 12.1575L34.6 11.0853C34.2775 10.889 33.7375 10.889 33.415 11.0853L31.6223 12.1575C30.3398 12.9201 29.5597 12.3538 29.8972 10.8889L30.3247 9.03146C30.3923 8.66902 30.2497 8.17822 30.0022 7.92904L28.5096 6.42643C27.6321 5.54299 27.9171 4.65199 29.1397 4.44057L31.0523 4.12344C31.3748 4.07058 31.7573 3.78365 31.8999 3.48917L32.9574 1.35985C33.535 0.212128 34.465 0.212128 35.0426 1.3674Z" fill="#F4A951"/>
<path d="M49.0426 1.3674L50.1001 3.49672C50.2427 3.7912 50.6252 4.07058 50.9477 4.13099L52.8603 4.44812C54.0829 4.65199 54.3679 5.54299 53.4904 6.43398L51.9978 7.93659C51.7503 8.18577 51.6077 8.67657 51.6903 9.03146L52.1178 10.8889C52.4553 12.3538 51.6753 12.9277 50.3927 12.1575L48.6 11.0853C48.2775 10.889 47.7375 10.889 47.415 11.0853L45.6223 12.1575C44.3398 12.9201 43.5597 12.3538 43.8972 10.8889L44.3247 9.03146C44.3923 8.66902 44.2497 8.17822 44.0022 7.92904L42.5096 6.42643C41.6321 5.54299 41.9171 4.65199 43.1397 4.44057L45.0523 4.12344C45.3748 4.07058 45.7573 3.78365 45.8999 3.48917L46.9574 1.35985C47.535 0.212128 48.465 0.212128 49.0426 1.3674Z" fill="#F4A951"/>
<path d="M63.0426 1.3674L64.1001 3.49672C64.2427 3.7912 64.6252 4.07058 64.9477 4.13099L66.8603 4.44812C68.0829 4.65199 68.3679 5.54299 67.4904 6.43398L65.9978 7.93659C65.7503 8.18577 65.6077 8.67657 65.6903 9.03146L66.1178 10.8889C66.4553 12.3538 65.6753 12.9277 64.3927 12.1575L62.6 11.0853C62.2775 10.889 61.7375 10.889 61.415 11.0853L59.6223 12.1575C58.3398 12.9201 57.5597 12.3538 57.8972 10.8889L58.3247 9.03146C58.3923 8.66902 58.2497 8.17822 58.0022 7.92904L56.5096 6.42643C55.6321 5.54299 55.9171 4.65199 57.1397 4.44057L59.0523 4.12344C59.3748 4.07058 59.7573 3.78365 59.8999 3.48917L60.9574 1.35985C61.535 0.212128 62.465 0.212128 63.0426 1.3674Z" fill="#F4A951"/>
</svg>
