<svg width="13" height="12" viewBox="0 0 13 12" fill="none" xmlns="http://www.w3.org/2000/svg">
<path d="M11.3768 3.60848L8.63111 3.2094L7.40242 0.720534C7.29545 0.504218 7.13014 0.322116 6.92515 0.194794C6.72015 0.0674718 6.48364 0 6.24233 0C6.00101 0 5.7645 0.0674718 5.55951 0.194794C5.35451 0.322116 5.1892 0.504218 5.08224 0.720534L3.85354 3.2094L1.10785 3.60848C0.868965 3.64323 0.644562 3.74411 0.459999 3.8997C0.275436 4.0553 0.138074 4.25941 0.0634288 4.48898C-0.0112168 4.71855 -0.02017 4.96442 0.0375872 5.19881C0.0953445 5.43319 0.217507 5.64676 0.390269 5.81536L2.3781 7.75282L1.90852 10.4884C1.86799 10.7263 1.89475 10.9707 1.98579 11.1942C2.07683 11.4176 2.22852 11.6111 2.42373 11.7529C2.61894 11.8947 2.8499 11.9791 3.09054 11.9966C3.33118 12.0141 3.57191 11.9639 3.78556 11.8518L6.2417 10.5602L8.69784 11.8518C8.91149 11.9639 9.15223 12.0141 9.39287 11.9966C9.6335 11.9791 9.86446 11.8947 10.0597 11.7529C10.2549 11.6111 10.4066 11.4176 10.4976 11.1942C10.5886 10.9707 10.6154 10.7263 10.5749 10.4884L10.1053 7.75282L12.0931 5.81536C12.2659 5.64684 12.3881 5.43337 12.4459 5.19908C12.5037 4.96478 12.4948 4.71899 12.4203 4.48946C12.3458 4.25992 12.2086 4.05579 12.0242 3.90011C11.8398 3.74444 11.6156 3.64343 11.3768 3.60848Z" fill="#3C95FF"/>
</svg>
