<svg width="16" height="16" viewBox="0 0 16 16" fill="none" xmlns="http://www.w3.org/2000/svg">
<path fill-rule="evenodd" clip-rule="evenodd" d="M1.33334 5.66675C1.33334 4.0099 2.67649 2.66675 4.33334 2.66675H7.66668C9.32353 2.66675 10.6667 4.00989 10.6667 5.66675V10.3334C10.6667 11.9903 9.32353 13.3334 7.66668 13.3334H4.33334C2.67649 13.3334 1.33334 11.9903 1.33334 10.3334V5.66675ZM8.66668 6.00008C8.66668 6.73646 8.06972 7.33341 7.33334 7.33341C6.59696 7.33341 6.00001 6.73646 6.00001 6.00008C6.00001 5.2637 6.59696 4.66675 7.33334 4.66675C8.06972 4.66675 8.66668 5.2637 8.66668 6.00008ZM14.6667 8.45965C14.6667 10.0539 12.8862 10.8975 11.6667 10.0646V5.93552C12.8862 5.10254 14.6667 5.94615 14.6667 7.54042V8.45965Z" fill="#F31954"/>
</svg>
