<svg width="10" height="11" viewBox="0 0 10 11" fill="none" xmlns="http://www.w3.org/2000/svg">
<path d="M5 0.5C4.0111 0.5 3.0444 0.793245 2.22215 1.34265C1.39991 1.89206 0.759043 2.67295 0.380605 3.58658C0.00216643 4.50021 -0.0968502 5.50555 0.0960758 6.47545C0.289002 7.44536 0.765206 8.33627 1.46447 9.03553C2.16373 9.7348 3.05465 10.211 4.02455 10.4039C4.99445 10.5969 5.99979 10.4978 6.91342 10.1194C7.82705 9.74096 8.60794 9.1001 9.15735 8.27785C9.70676 7.4556 10 6.48891 10 5.5C9.99842 4.1744 9.47113 2.90355 8.53379 1.96621C7.59645 1.02887 6.3256 0.501579 5 0.5ZM8.95166 7.15009C8.70635 7.73395 8.33515 8.25644 7.86456 8.68026C7.39398 9.10408 6.83562 9.41876 6.22936 9.60185C6.25124 9.56074 6.27246 9.51929 6.29302 9.47752C6.38532 9.27647 6.52366 9.09997 6.69684 8.9623C6.83907 8.84693 7.11956 8.66391 7.0738 8.44311C7.04098 8.27999 6.85498 8.21335 6.71474 8.17356C6.48866 8.11687 6.25736 8.08354 6.02447 8.0741C5.82426 8.07294 5.62454 8.05397 5.42769 8.01741C5.13726 7.9438 5.07161 7.69216 5.05272 7.4266C5.06093 7.18786 5.01679 6.95022 4.92342 6.73036C4.83383 6.60926 4.71634 6.51158 4.58093 6.44561C4.44552 6.37963 4.29619 6.34732 4.14562 6.3514C3.90492 6.32952 3.66421 6.34145 3.4255 6.30068C3.20185 6.24025 2.97251 6.20325 2.7412 6.19027C2.43485 6.20221 2.29759 6.41008 2.1663 6.64979C1.97721 7.0911 1.73757 7.50899 1.45216 7.89507C1.0278 7.26935 0.777858 6.54185 0.728071 5.78745C0.762418 5.77781 0.795734 5.76482 0.827533 5.74866C0.960814 5.68301 1.05431 5.56266 1.19853 5.51591C1.3502 5.48953 1.50553 5.49257 1.65606 5.52487C1.79647 5.54427 1.93866 5.54727 2.07977 5.53382C2.20502 5.51814 2.32089 5.45932 2.40747 5.36747C2.49405 5.27563 2.54594 5.15649 2.55421 5.03053C2.56879 4.86851 2.57244 4.70568 2.56515 4.54317C2.57311 4.28954 2.73921 4.19803 2.96897 4.17714C3.40263 4.13636 4.41317 4.25174 4.43406 3.58037C4.44301 3.29491 4.10285 3.1477 3.88204 3.07211C3.43847 2.983 2.99063 2.9166 2.54028 2.87318C2.30938 2.80886 2.10208 2.67895 1.94351 2.4992C2.43099 2.00219 3.03243 1.63169 3.6956 1.41988C4.35878 1.20807 5.06363 1.16134 5.74896 1.28377C5.6236 1.30458 5.50065 1.3379 5.38194 1.38323C5.2505 1.4498 5.13495 1.5439 5.04316 1.65915C4.95136 1.77439 4.88548 1.90805 4.84999 2.05105C4.8145 2.19404 4.81024 2.343 4.8375 2.48779C4.86476 2.63258 4.9229 2.7698 5.00796 2.89009C5.19238 3.21967 5.44337 3.50724 5.74498 3.73453C6.02698 3.93698 6.32657 4.11374 6.64014 4.26268C7.05192 4.48946 7.00219 5.08027 7.10663 5.47812C7.14223 5.6436 7.21867 5.79754 7.32898 5.92592C7.4393 6.0543 7.57998 6.15304 7.73821 6.21315C7.93714 6.28377 8.17486 6.22906 8.35091 6.36831C8.50209 6.48866 8.5379 6.73334 8.62443 6.89845C8.65147 6.96583 8.6961 7.02472 8.75366 7.06898C8.81122 7.11325 8.87959 7.14125 8.95166 7.15009Z" fill="#99A1BE"/>
</svg>
