<svg width="14" height="14" viewBox="0 0 14 14" fill="none" xmlns="http://www.w3.org/2000/svg">
<path d="M8.21633 1.01197L9.45017 3.49618C9.61643 3.83974 10.0627 4.16568 10.439 4.23616L12.6704 4.60614C14.0967 4.84399 14.4293 5.88349 13.4054 6.92298L11.6641 8.67602C11.3753 8.96673 11.209 9.53933 11.3053 9.95336L11.8041 12.1204C12.1979 13.8294 11.2878 14.4989 9.79144 13.6004L7.70005 12.3495C7.32377 12.1204 6.69373 12.1204 6.31745 12.3495L4.22606 13.6004C2.72971 14.4901 1.81965 13.8294 2.21342 12.1204L2.71221 9.95336C2.79096 9.53052 2.6247 8.95792 2.33593 8.66721L0.594563 6.91417C-0.429257 5.88349 -0.0967346 4.84399 1.32961 4.59733L3.56102 4.22735C3.93729 4.16568 4.38357 3.83093 4.54983 3.48737L5.78367 1.00316C6.45746 -0.33585 7.54254 -0.33585 8.21633 1.01197Z" fill="#E09B4A"/>
</svg>
